<svg preserveAspectRatio="none" width="100%" height="100%" overflow="visible" style="display: block;" viewBox="0 0 12 12" fill="none" xmlns="http://www.w3.org/2000/svg">
<g id="Icon" clip-path="url(#clip0_0_77)">
<path id="Vector" d="M7.26802 10.843C7.28702 10.8903 7.32004 10.9307 7.36266 10.9588C7.40528 10.9868 7.45545 11.0011 7.50645 10.9998C7.55744 10.9985 7.60681 10.9816 7.64794 10.9515C7.68907 10.9213 7.71998 10.8792 7.73652 10.831L10.9865 1.331C11.0025 1.28669 11.0056 1.23875 10.9953 1.19277C10.9851 1.1468 10.9619 1.10469 10.9286 1.07139C10.8953 1.03808 10.8532 1.01495 10.8072 1.00469C10.7613 0.994442 10.7133 0.997496 10.669 1.0135L1.16902 4.2635C1.12077 4.28005 1.07874 4.31096 1.04856 4.35208C1.01838 4.39321 1.00151 4.44258 1.0002 4.49358C0.998898 4.54457 1.01322 4.59474 1.04125 4.63736C1.06929 4.67998 1.10968 4.713 1.15702 4.732L5.12203 6.322C5.24737 6.37218 5.36125 6.44723 5.45681 6.54261C5.55236 6.638 5.62762 6.75174 5.67802 6.877L7.26802 10.843Z" stroke="var(--stroke-0, #53EAFD)" stroke-linecap="round" stroke-linejoin="round"/>
<path id="Vector_2" d="M10.927 1.07349L5.45697 6.54299" stroke="var(--stroke-0, #53EAFD)" stroke-linecap="round" stroke-linejoin="round"/>
</g>
<defs>
<clipPath id="clip0_0_77">
<rect width="12" height="12" fill="white"/>
</clipPath>
</defs>
</svg>
