<svg preserveAspectRatio="none" width="100%" height="100%" overflow="visible" style="display: block;" viewBox="0 0 48 48" fill="none" xmlns="http://www.w3.org/2000/svg">
<g id="Icon">
<path id="Vector" d="M23.9957 19.9964C22.935 19.9964 21.9178 20.4178 21.1678 21.1678C20.4178 21.9178 19.9964 22.9351 19.9964 23.9957C19.9964 26.0354 19.7965 29.0148 19.4765 31.9943" stroke="var(--stroke-0, #53EAFD)" stroke-width="3.99929" stroke-linecap="round" stroke-linejoin="round"/>
<path id="Vector_2" d="M27.995 26.2353C27.995 30.9945 27.995 38.9931 25.9954 43.9922" stroke="var(--stroke-0, #53EAFD)" stroke-width="3.99929" stroke-linecap="round" stroke-linejoin="round"/>
<path id="Vector_3" d="M34.5739 42.0325C34.8139 40.8327 35.4338 37.4333 35.5737 35.9936" stroke="var(--stroke-0, #53EAFD)" stroke-width="3.99929" stroke-linecap="round" stroke-linejoin="round"/>
<path id="Vector_4" d="M3.99929 23.9957C3.99929 19.7988 5.3198 15.7083 7.77377 12.3036C10.2277 8.8989 13.6908 6.35262 17.6723 5.02544C21.6538 3.69826 25.952 3.65748 29.958 4.90886C33.964 6.16024 37.4747 8.64034 39.9929 11.9979" stroke="var(--stroke-0, #53EAFD)" stroke-width="3.99929" stroke-linecap="round" stroke-linejoin="round"/>
<path id="Vector_5" d="M3.99929 31.9943H4.01928" stroke="var(--stroke-0, #53EAFD)" stroke-width="3.99929" stroke-linecap="round" stroke-linejoin="round"/>
<path id="Vector_6" d="M43.5923 31.9943C43.9923 27.995 43.8543 21.2882 43.5923 19.9964" stroke="var(--stroke-0, #53EAFD)" stroke-width="3.99929" stroke-linecap="round" stroke-linejoin="round"/>
<path id="Vector_7" d="M9.99822 38.9931C10.998 35.9936 11.9979 29.9947 11.9979 23.9957C11.9958 22.6337 12.2258 21.2813 12.6777 19.9964" stroke="var(--stroke-0, #53EAFD)" stroke-width="3.99929" stroke-linecap="round" stroke-linejoin="round"/>
<path id="Vector_8" d="M17.297 43.9922C17.7169 42.6724 18.1968 41.3526 18.4368 39.9929" stroke="var(--stroke-0, #53EAFD)" stroke-width="3.99929" stroke-linecap="round" stroke-linejoin="round"/>
<path id="Vector_9" d="M17.9968 13.5976C19.8213 12.5442 21.8909 11.9898 23.9977 11.9902C26.1044 11.9905 28.1739 12.5456 29.998 13.5995C31.8221 14.6535 33.3366 16.1691 34.3891 17.9941C35.4416 19.8191 35.9949 21.889 35.9936 23.9957V27.995" stroke="var(--stroke-0, #53EAFD)" stroke-width="3.99929" stroke-linecap="round" stroke-linejoin="round"/>
</g>
</svg>
