<svg width="22" height="22" viewBox="0 0 22 22" fill="none" xmlns="http://www.w3.org/2000/svg">
<path d="M12.9111 0C18.0947 1.0182 22 5.50726 22 10.8915C22 17.0266 16.9298 22 10.6754 22C5.74875 22 1.55781 18.9138 0 14.6051C1.83803 16.9242 4.70894 18.4166 7.93553 18.4166C13.4838 18.4166 17.9816 14.0047 17.9816 8.56232C17.9816 4.89573 15.9399 1.69716 12.9111 0Z" fill="#A2F4FD"/>
<path d="M10.4954 2.65008C10.4936 2.68443 10.4927 2.71902 10.4927 2.75381C10.4927 3.84229 11.3923 4.72467 12.5019 4.72467C11.4277 4.72467 10.5504 5.55154 10.4954 6.5918H10.49C10.435 5.55154 9.55769 4.72467 8.48351 4.72467C9.59316 4.72467 10.4927 3.84229 10.4927 2.75381C10.4927 2.71902 10.4918 2.68443 10.49 2.65008H10.4954Z" fill="#A2F4FD"/>
<path d="M3.91978 5.87489C3.91796 5.92798 3.91709 5.98143 3.91709 6.0352C3.91709 7.71739 4.81664 9.08107 5.9263 9.08107C4.85211 9.08107 3.97476 10.359 3.91978 11.9666H3.9144C3.85942 10.359 2.98207 9.08107 1.90788 9.08107C3.01754 9.08107 3.91709 7.71739 3.91709 6.0352C3.91709 5.98143 3.91622 5.92798 3.9144 5.87489H3.91978Z" fill="#A2F4FD"/>
</svg>
