<svg width="356" height="484" viewBox="0 0 356 484" fill="none" xmlns="http://www.w3.org/2000/svg">
<g filter="url(#filter0_d_161_42020)">
<g clip-path="url(#clip0_161_42020)">
<mask id="path-1-inside-1_161_42020" fill="white">
<path d="M50 66C50 57.1635 57.1634 50 66 50H290C298.837 50 306 57.1634 306 66V418C306 426.837 298.837 434 290 434H66C57.1634 434 50 426.837 50 418V66Z"/>
</mask>
<path d="M50 66C50 57.1635 57.1634 50 66 50H290C298.837 50 306 57.1634 306 66V418C306 426.837 298.837 434 290 434H66C57.1634 434 50 426.837 50 418V66Z" fill="black" fill-opacity="0.4" shape-rendering="crispEdges"/>
<path d="M120.741 80.0469H122.272L125.15 87.7236L128.021 80.0469H129.553L125.752 90H124.535L120.741 80.0469ZM120.044 80.0469H121.5L121.753 86.6914V90H120.044V80.0469ZM128.794 80.0469H130.257V90H128.541V86.6914L128.794 80.0469ZM137.397 83.6699L135.005 90H133.337L136.543 82.0361H137.65L137.397 83.6699ZM139.605 90L137.199 83.6562L136.946 82.0361H138.074L141.273 90H139.605ZM139.503 87.0469V88.2842H134.95V87.0469H139.503ZM147.621 87.4912V82.0361H149.275V87.4912C149.275 88.0426 149.152 88.5143 148.906 88.9062C148.66 89.2936 148.327 89.5921 147.908 89.8018C147.493 90.0068 147.026 90.1094 146.507 90.1094C145.937 90.1094 145.434 90.0205 144.996 89.8428C144.559 89.6605 144.215 89.3848 143.964 89.0156C143.718 88.6419 143.595 88.168 143.595 87.5938H145.249C145.249 87.8763 145.299 88.1087 145.399 88.291C145.5 88.4688 145.643 88.5986 145.83 88.6807C146.021 88.7627 146.247 88.8037 146.507 88.8037C146.739 88.8037 146.938 88.7536 147.102 88.6533C147.27 88.5531 147.398 88.4072 147.484 88.2158C147.576 88.0199 147.621 87.7783 147.621 87.4912ZM159.8 85.8301V86.2129C159.8 86.819 159.713 87.3613 159.54 87.8398C159.367 88.3184 159.121 88.7285 158.802 89.0703C158.487 89.4076 158.109 89.665 157.667 89.8428C157.225 90.0205 156.737 90.1094 156.204 90.1094C155.671 90.1094 155.183 90.0205 154.741 89.8428C154.299 89.665 153.916 89.4076 153.593 89.0703C153.269 88.7285 153.019 88.3184 152.841 87.8398C152.668 87.3613 152.581 86.819 152.581 86.2129V85.8301C152.581 85.224 152.668 84.6816 152.841 84.2031C153.019 83.7246 153.267 83.3145 153.586 82.9727C153.905 82.6309 154.285 82.3711 154.728 82.1934C155.17 82.0156 155.657 81.9268 156.19 81.9268C156.728 81.9268 157.216 82.0156 157.653 82.1934C158.095 82.3711 158.476 82.6309 158.795 82.9727C159.118 83.3145 159.367 83.7246 159.54 84.2031C159.713 84.6816 159.8 85.224 159.8 85.8301ZM158.152 86.2129V85.8164C158.152 85.4017 158.109 85.0348 158.022 84.7158C157.936 84.3968 157.806 84.1279 157.633 83.9092C157.464 83.6904 157.259 83.5241 157.018 83.4102C156.776 83.2962 156.5 83.2393 156.19 83.2393C155.885 83.2393 155.609 83.2962 155.363 83.4102C155.122 83.5241 154.917 83.6904 154.748 83.9092C154.584 84.1279 154.456 84.3968 154.365 84.7158C154.279 85.0348 154.235 85.4017 154.235 85.8164V86.2129C154.235 86.623 154.279 86.9899 154.365 87.3135C154.456 87.6325 154.586 87.9036 154.755 88.127C154.928 88.3457 155.135 88.5143 155.377 88.6328C155.623 88.7467 155.899 88.8037 156.204 88.8037C156.514 88.8037 156.787 88.7467 157.024 88.6328C157.266 88.5143 157.471 88.3457 157.64 88.127C157.808 87.9036 157.936 87.6325 158.022 87.3135C158.109 86.9899 158.152 86.623 158.152 86.2129ZM163.146 82.0361H166.284C166.772 82.0361 167.209 82.0885 167.597 82.1934C167.984 82.2982 168.312 82.4531 168.581 82.6582C168.854 82.8587 169.062 83.1094 169.203 83.4102C169.349 83.7064 169.422 84.0505 169.422 84.4424C169.422 84.8753 169.344 85.2467 169.189 85.5566C169.035 85.862 168.816 86.1149 168.533 86.3154C168.251 86.516 167.918 86.6777 167.535 86.8008L167.009 87.0879H164.24L164.227 85.7754H166.305C166.633 85.7754 166.904 85.7253 167.118 85.625C167.332 85.5247 167.494 85.3857 167.604 85.208C167.713 85.0257 167.768 84.8161 167.768 84.5791C167.768 84.3285 167.713 84.112 167.604 83.9297C167.499 83.7428 167.335 83.5993 167.111 83.499C166.893 83.3988 166.617 83.3486 166.284 83.3486H164.801V90H163.146V82.0361ZM167.973 90L166.004 86.4727L167.747 86.459L169.75 89.9248V90H167.973ZM182.404 81.373L179.431 90H177.633L181.379 80.0469H182.527L182.404 81.373ZM184.893 90L181.912 81.373L181.782 80.0469H182.938L186.697 90H184.893ZM184.749 86.3086V87.6689H179.335V86.3086H184.749ZM189.6 82.0361H192.737C193.225 82.0361 193.662 82.0885 194.05 82.1934C194.437 82.2982 194.765 82.4531 195.034 82.6582C195.308 82.8587 195.515 83.1094 195.656 83.4102C195.802 83.7064 195.875 84.0505 195.875 84.4424C195.875 84.8753 195.798 85.2467 195.643 85.5566C195.488 85.862 195.269 86.1149 194.986 86.3154C194.704 86.516 194.371 86.6777 193.988 86.8008L193.462 87.0879H190.693L190.68 85.7754H192.758C193.086 85.7754 193.357 85.7253 193.571 85.625C193.785 85.5247 193.947 85.3857 194.057 85.208C194.166 85.0257 194.221 84.8161 194.221 84.5791C194.221 84.3285 194.166 84.112 194.057 83.9297C193.952 83.7428 193.788 83.5993 193.564 83.499C193.346 83.3988 193.07 83.3486 192.737 83.3486H191.254V90H189.6V82.0361ZM194.426 90L192.457 86.4727L194.2 86.459L196.203 89.9248V90H194.426ZM204.28 87.3477H205.935C205.894 87.89 205.734 88.3685 205.456 88.7832C205.183 89.1979 204.8 89.5238 204.308 89.7607C203.815 89.9932 203.221 90.1094 202.523 90.1094C201.981 90.1094 201.493 90.0205 201.061 89.8428C200.632 89.665 200.265 89.4121 199.96 89.084C199.659 88.7513 199.427 88.3503 199.263 87.8809C199.103 87.4069 199.023 86.876 199.023 86.2881V85.7549C199.023 85.167 199.105 84.6383 199.27 84.1689C199.434 83.695 199.671 83.2917 199.98 82.959C200.29 82.6217 200.66 82.3665 201.088 82.1934C201.521 82.0156 202.006 81.9268 202.544 81.9268C203.25 81.9268 203.845 82.0475 204.328 82.2891C204.811 82.526 205.187 82.8564 205.456 83.2803C205.725 83.7041 205.887 84.1895 205.941 84.7363H204.294C204.267 84.4401 204.191 84.1803 204.068 83.957C203.945 83.7292 203.761 83.5514 203.515 83.4238C203.269 83.2962 202.945 83.2324 202.544 83.2324C202.234 83.2324 201.963 83.2871 201.73 83.3965C201.498 83.5013 201.302 83.6608 201.143 83.875C200.988 84.0892 200.869 84.3535 200.787 84.668C200.71 84.9779 200.671 85.3379 200.671 85.748V86.2881C200.671 86.6891 200.705 87.0469 200.773 87.3613C200.846 87.6712 200.958 87.9333 201.108 88.1475C201.259 88.3617 201.45 88.5257 201.683 88.6396C201.92 88.749 202.2 88.8037 202.523 88.8037C202.911 88.8037 203.228 88.7513 203.474 88.6465C203.72 88.5371 203.909 88.373 204.041 88.1543C204.173 87.9355 204.253 87.6667 204.28 87.3477ZM212.474 83.6699L210.081 90H208.413L211.619 82.0361H212.727L212.474 83.6699ZM214.682 90L212.275 83.6562L212.022 82.0361H213.15L216.35 90H214.682ZM214.579 87.0469V88.2842H210.026V87.0469H214.579ZM226.115 82.0361V90H224.461L220.865 84.5107V90H219.218V82.0361H220.865L224.461 87.5254V82.0361H226.115ZM233.03 83.6699L230.638 90H228.97L232.176 82.0361H233.283L233.03 83.6699ZM235.238 90L232.832 83.6562L232.579 82.0361H233.707L236.906 90H235.238ZM235.136 87.0469V88.2842H230.583V87.0469H235.136Z" fill="#F59E0B"/>
<path d="M136.342 336.359V352H133.667V336.359H136.342ZM141.251 336.359V338.508H128.801V336.359H141.251ZM145.612 335.5V352H143.034V335.5H145.612ZM145.161 345.759L144.323 345.748C144.33 344.946 144.441 344.205 144.656 343.524C144.878 342.844 145.186 342.253 145.58 341.752C145.981 341.243 146.461 340.853 147.02 340.581C147.578 340.302 148.198 340.162 148.878 340.162C149.451 340.162 149.966 340.241 150.425 340.398C150.89 340.556 151.291 340.81 151.628 341.161C151.965 341.505 152.219 341.956 152.391 342.515C152.57 343.066 152.659 343.739 152.659 344.534V352H150.06V344.513C150.06 343.954 149.977 343.51 149.812 343.181C149.655 342.851 149.422 342.615 149.114 342.472C148.806 342.321 148.43 342.246 147.986 342.246C147.521 342.246 147.109 342.339 146.751 342.525C146.4 342.712 146.106 342.966 145.87 343.288C145.634 343.61 145.455 343.983 145.333 344.405C145.218 344.828 145.161 345.279 145.161 345.759ZM160.404 352.215C159.545 352.215 158.768 352.075 158.073 351.796C157.386 351.509 156.799 351.112 156.312 350.604C155.832 350.095 155.463 349.497 155.205 348.81C154.947 348.122 154.818 347.381 154.818 346.586V346.156C154.818 345.247 154.951 344.423 155.216 343.686C155.481 342.948 155.85 342.318 156.322 341.795C156.795 341.265 157.354 340.86 157.998 340.581C158.643 340.302 159.341 340.162 160.093 340.162C160.924 340.162 161.65 340.302 162.273 340.581C162.896 340.86 163.412 341.254 163.82 341.763C164.236 342.264 164.544 342.862 164.744 343.557C164.952 344.251 165.056 345.018 165.056 345.855V346.962H156.075V345.104H162.499V344.899C162.485 344.434 162.392 343.997 162.22 343.589C162.055 343.181 161.801 342.851 161.457 342.601C161.113 342.35 160.655 342.225 160.082 342.225C159.652 342.225 159.269 342.318 158.933 342.504C158.603 342.683 158.327 342.944 158.105 343.288C157.883 343.632 157.712 344.047 157.59 344.534C157.475 345.014 157.418 345.555 157.418 346.156V346.586C157.418 347.094 157.486 347.567 157.622 348.004C157.765 348.434 157.973 348.81 158.245 349.132C158.517 349.454 158.847 349.708 159.233 349.895C159.62 350.074 160.061 350.163 160.555 350.163C161.178 350.163 161.733 350.038 162.22 349.787C162.707 349.536 163.129 349.182 163.487 348.724L164.852 350.045C164.601 350.41 164.275 350.761 163.874 351.098C163.473 351.427 162.982 351.696 162.402 351.903C161.829 352.111 161.163 352.215 160.404 352.215ZM173.907 336.359H176.313L180.836 348.423L185.348 336.359H187.754L181.781 352H179.869L173.907 336.359ZM172.812 336.359H175.1L175.497 346.801V352H172.812V336.359ZM186.562 336.359H188.86V352H186.164V346.801L186.562 336.359ZM191.31 346.317V346.07C191.31 345.232 191.431 344.455 191.675 343.739C191.918 343.016 192.269 342.389 192.728 341.859C193.193 341.322 193.759 340.907 194.425 340.613C195.098 340.312 195.857 340.162 196.702 340.162C197.554 340.162 198.313 340.312 198.979 340.613C199.653 340.907 200.222 341.322 200.688 341.859C201.153 342.389 201.507 343.016 201.751 343.739C201.994 344.455 202.116 345.232 202.116 346.07V346.317C202.116 347.155 201.994 347.932 201.751 348.648C201.507 349.365 201.153 349.991 200.688 350.528C200.222 351.058 199.656 351.474 198.99 351.774C198.324 352.068 197.569 352.215 196.724 352.215C195.871 352.215 195.109 352.068 194.436 351.774C193.77 351.474 193.204 351.058 192.738 350.528C192.273 349.991 191.918 349.365 191.675 348.648C191.431 347.932 191.31 347.155 191.31 346.317ZM193.898 346.07V346.317C193.898 346.84 193.952 347.334 194.06 347.8C194.167 348.265 194.335 348.674 194.564 349.024C194.794 349.375 195.087 349.651 195.445 349.852C195.803 350.052 196.229 350.152 196.724 350.152C197.203 350.152 197.619 350.052 197.97 349.852C198.328 349.651 198.621 349.375 198.851 349.024C199.08 348.674 199.248 348.265 199.355 347.8C199.47 347.334 199.527 346.84 199.527 346.317V346.07C199.527 345.555 199.47 345.068 199.355 344.609C199.248 344.144 199.076 343.732 198.84 343.374C198.611 343.016 198.317 342.737 197.959 342.536C197.608 342.328 197.189 342.225 196.702 342.225C196.215 342.225 195.793 342.328 195.435 342.536C195.084 342.737 194.794 343.016 194.564 343.374C194.335 343.732 194.167 344.144 194.06 344.609C193.952 345.068 193.898 345.555 193.898 346.07ZM203.792 346.317V346.07C203.792 345.232 203.914 344.455 204.157 343.739C204.401 343.016 204.752 342.389 205.21 341.859C205.675 341.322 206.241 340.907 206.907 340.613C207.58 340.312 208.34 340.162 209.185 340.162C210.037 340.162 210.796 340.312 211.462 340.613C212.135 340.907 212.704 341.322 213.17 341.859C213.635 342.389 213.99 343.016 214.233 343.739C214.477 344.455 214.599 345.232 214.599 346.07V346.317C214.599 347.155 214.477 347.932 214.233 348.648C213.99 349.365 213.635 349.991 213.17 350.528C212.704 351.058 212.139 351.474 211.473 351.774C210.807 352.068 210.051 352.215 209.206 352.215C208.354 352.215 207.591 352.068 206.918 351.774C206.252 351.474 205.686 351.058 205.221 350.528C204.755 349.991 204.401 349.365 204.157 348.648C203.914 347.932 203.792 347.155 203.792 346.317ZM206.381 346.07V346.317C206.381 346.84 206.435 347.334 206.542 347.8C206.649 348.265 206.818 348.674 207.047 349.024C207.276 349.375 207.57 349.651 207.928 349.852C208.286 350.052 208.712 350.152 209.206 350.152C209.686 350.152 210.101 350.052 210.452 349.852C210.81 349.651 211.104 349.375 211.333 349.024C211.562 348.674 211.73 348.265 211.838 347.8C211.952 347.334 212.01 346.84 212.01 346.317V346.07C212.01 345.555 211.952 345.068 211.838 344.609C211.73 344.144 211.559 343.732 211.322 343.374C211.093 343.016 210.799 342.737 210.441 342.536C210.09 342.328 209.672 342.225 209.185 342.225C208.698 342.225 208.275 342.328 207.917 342.536C207.566 342.737 207.276 343.016 207.047 343.374C206.818 343.732 206.649 344.144 206.542 344.609C206.435 345.068 206.381 345.555 206.381 346.07ZM219.336 342.858V352H216.747V340.377H219.186L219.336 342.858ZM218.874 345.759L218.036 345.748C218.043 344.924 218.158 344.169 218.38 343.481C218.609 342.794 218.924 342.203 219.325 341.709C219.733 341.215 220.22 340.835 220.786 340.57C221.352 340.298 221.982 340.162 222.677 340.162C223.235 340.162 223.74 340.241 224.191 340.398C224.65 340.549 225.04 340.796 225.362 341.14C225.692 341.483 225.942 341.931 226.114 342.482C226.286 343.027 226.372 343.696 226.372 344.491V352H223.772V344.48C223.772 343.922 223.69 343.481 223.525 343.159C223.368 342.83 223.135 342.597 222.827 342.461C222.526 342.318 222.15 342.246 221.699 342.246C221.255 342.246 220.858 342.339 220.507 342.525C220.156 342.712 219.859 342.966 219.615 343.288C219.379 343.61 219.196 343.983 219.067 344.405C218.938 344.828 218.874 345.279 218.874 345.759Z" fill="white"/>
<path d="M127.113 369.469V378H126V369.469H127.113ZM129.855 369.469V370.395H123.263V369.469H129.855ZM131.795 372.656V378H130.711V371.66H131.766L131.795 372.656ZM133.776 371.625L133.77 372.633C133.68 372.613 133.594 372.602 133.512 372.598C133.434 372.59 133.344 372.586 133.243 372.586C132.993 372.586 132.772 372.625 132.58 372.703C132.389 372.781 132.227 372.891 132.094 373.031C131.961 373.172 131.856 373.34 131.778 373.535C131.704 373.727 131.655 373.938 131.631 374.168L131.327 374.344C131.327 373.961 131.364 373.602 131.438 373.266C131.516 372.93 131.635 372.633 131.795 372.375C131.955 372.113 132.159 371.91 132.405 371.766C132.655 371.617 132.952 371.543 133.295 371.543C133.373 371.543 133.463 371.553 133.565 371.572C133.666 371.588 133.737 371.605 133.776 371.625ZM138.857 376.535V371.66H139.946V378H138.909L138.857 376.535ZM139.062 375.199L139.513 375.188C139.513 375.609 139.468 376 139.378 376.359C139.292 376.715 139.152 377.023 138.956 377.285C138.761 377.547 138.505 377.752 138.189 377.9C137.872 378.045 137.488 378.117 137.034 378.117C136.726 378.117 136.443 378.072 136.185 377.982C135.931 377.893 135.712 377.754 135.529 377.566C135.345 377.379 135.202 377.135 135.101 376.834C135.003 376.533 134.954 376.172 134.954 375.75V371.66H136.038V375.762C136.038 376.047 136.07 376.283 136.132 376.471C136.198 376.654 136.286 376.801 136.396 376.91C136.509 377.016 136.634 377.09 136.771 377.133C136.911 377.176 137.056 377.197 137.204 377.197C137.665 377.197 138.03 377.109 138.3 376.934C138.57 376.754 138.763 376.514 138.88 376.213C139.001 375.908 139.062 375.57 139.062 375.199ZM145.49 376.318C145.49 376.162 145.455 376.018 145.385 375.885C145.318 375.748 145.18 375.625 144.969 375.516C144.762 375.402 144.449 375.305 144.031 375.223C143.68 375.148 143.361 375.061 143.076 374.959C142.795 374.857 142.555 374.734 142.355 374.59C142.16 374.445 142.01 374.275 141.904 374.08C141.799 373.885 141.746 373.656 141.746 373.395C141.746 373.145 141.801 372.908 141.91 372.686C142.023 372.463 142.182 372.266 142.385 372.094C142.592 371.922 142.84 371.787 143.129 371.689C143.418 371.592 143.74 371.543 144.096 371.543C144.604 371.543 145.037 371.633 145.396 371.812C145.756 371.992 146.031 372.232 146.223 372.533C146.414 372.83 146.51 373.16 146.51 373.523H145.426C145.426 373.348 145.373 373.178 145.268 373.014C145.166 372.846 145.016 372.707 144.816 372.598C144.621 372.488 144.381 372.434 144.096 372.434C143.795 372.434 143.551 372.48 143.363 372.574C143.18 372.664 143.045 372.779 142.959 372.92C142.877 373.061 142.836 373.209 142.836 373.365C142.836 373.482 142.855 373.588 142.895 373.682C142.938 373.771 143.012 373.855 143.117 373.934C143.223 374.008 143.371 374.078 143.562 374.145C143.754 374.211 143.998 374.277 144.295 374.344C144.814 374.461 145.242 374.602 145.578 374.766C145.914 374.93 146.164 375.131 146.328 375.369C146.492 375.607 146.574 375.896 146.574 376.236C146.574 376.514 146.516 376.768 146.398 376.998C146.285 377.229 146.119 377.428 145.9 377.596C145.686 377.76 145.428 377.889 145.127 377.982C144.83 378.072 144.496 378.117 144.125 378.117C143.566 378.117 143.094 378.018 142.707 377.818C142.32 377.619 142.027 377.361 141.828 377.045C141.629 376.729 141.529 376.395 141.529 376.043H142.619C142.635 376.34 142.721 376.576 142.877 376.752C143.033 376.924 143.225 377.047 143.451 377.121C143.678 377.191 143.902 377.227 144.125 377.227C144.422 377.227 144.67 377.188 144.869 377.109C145.072 377.031 145.227 376.924 145.332 376.787C145.438 376.65 145.49 376.494 145.49 376.318ZM150.852 371.66V372.492H147.425V371.66H150.852ZM148.585 370.119H149.669V376.43C149.669 376.645 149.702 376.807 149.768 376.916C149.835 377.025 149.921 377.098 150.026 377.133C150.132 377.168 150.245 377.186 150.366 377.186C150.456 377.186 150.55 377.178 150.647 377.162C150.749 377.143 150.825 377.127 150.876 377.115L150.882 378C150.796 378.027 150.682 378.053 150.542 378.076C150.405 378.104 150.239 378.117 150.044 378.117C149.778 378.117 149.534 378.064 149.311 377.959C149.089 377.854 148.911 377.678 148.778 377.432C148.649 377.182 148.585 376.846 148.585 376.424V370.119ZM157.282 377.344L159.045 371.66H160.205L157.663 378.979C157.604 379.135 157.526 379.303 157.428 379.482C157.334 379.666 157.213 379.84 157.065 380.004C156.916 380.168 156.737 380.301 156.526 380.402C156.319 380.508 156.071 380.561 155.782 380.561C155.696 380.561 155.586 380.549 155.454 380.525C155.321 380.502 155.227 380.482 155.172 380.467L155.166 379.588C155.198 379.592 155.246 379.596 155.313 379.6C155.383 379.607 155.432 379.611 155.459 379.611C155.705 379.611 155.914 379.578 156.086 379.512C156.258 379.449 156.403 379.342 156.52 379.189C156.641 379.041 156.745 378.836 156.83 378.574L157.282 377.344ZM155.987 371.66L157.633 376.582L157.914 377.725L157.135 378.123L154.803 371.66H155.987ZM161.003 374.9V374.766C161.003 374.309 161.07 373.885 161.202 373.494C161.335 373.1 161.527 372.758 161.777 372.469C162.027 372.176 162.329 371.949 162.685 371.789C163.04 371.625 163.439 371.543 163.88 371.543C164.325 371.543 164.726 371.625 165.081 371.789C165.441 371.949 165.745 372.176 165.995 372.469C166.249 372.758 166.443 373.1 166.575 373.494C166.708 373.885 166.775 374.309 166.775 374.766V374.9C166.775 375.357 166.708 375.781 166.575 376.172C166.443 376.562 166.249 376.904 165.995 377.197C165.745 377.486 165.443 377.713 165.087 377.877C164.736 378.037 164.337 378.117 163.892 378.117C163.446 378.117 163.046 378.037 162.691 377.877C162.335 377.713 162.03 377.486 161.777 377.197C161.527 376.904 161.335 376.562 161.202 376.172C161.07 375.781 161.003 375.357 161.003 374.9ZM162.087 374.766V374.9C162.087 375.217 162.124 375.516 162.198 375.797C162.273 376.074 162.384 376.32 162.532 376.535C162.685 376.75 162.874 376.92 163.101 377.045C163.327 377.166 163.591 377.227 163.892 377.227C164.189 377.227 164.448 377.166 164.671 377.045C164.898 376.92 165.085 376.75 165.234 376.535C165.382 376.32 165.493 376.074 165.568 375.797C165.646 375.516 165.685 375.217 165.685 374.9V374.766C165.685 374.453 165.646 374.158 165.568 373.881C165.493 373.6 165.38 373.352 165.228 373.137C165.079 372.918 164.892 372.746 164.665 372.621C164.443 372.496 164.181 372.434 163.88 372.434C163.583 372.434 163.321 372.496 163.095 372.621C162.872 372.746 162.685 372.918 162.532 373.137C162.384 373.352 162.273 373.6 162.198 373.881C162.124 374.158 162.087 374.453 162.087 374.766ZM172.213 376.535V371.66H173.303V378H172.266L172.213 376.535ZM172.418 375.199L172.869 375.188C172.869 375.609 172.824 376 172.734 376.359C172.648 376.715 172.508 377.023 172.312 377.285C172.117 377.547 171.861 377.752 171.545 377.9C171.229 378.045 170.844 378.117 170.391 378.117C170.082 378.117 169.799 378.072 169.541 377.982C169.287 377.893 169.068 377.754 168.885 377.566C168.701 377.379 168.559 377.135 168.457 376.834C168.359 376.533 168.311 376.172 168.311 375.75V371.66H169.395V375.762C169.395 376.047 169.426 376.283 169.488 376.471C169.555 376.654 169.643 376.801 169.752 376.91C169.865 377.016 169.99 377.09 170.127 377.133C170.268 377.176 170.412 377.197 170.561 377.197C171.021 377.197 171.387 377.109 171.656 376.934C171.926 376.754 172.119 376.514 172.236 376.213C172.357 375.908 172.418 375.57 172.418 375.199ZM176.239 372.656V378H175.155V371.66H176.21L176.239 372.656ZM178.22 371.625L178.214 372.633C178.124 372.613 178.038 372.602 177.956 372.598C177.878 372.59 177.788 372.586 177.686 372.586C177.436 372.586 177.216 372.625 177.024 372.703C176.833 372.781 176.671 372.891 176.538 373.031C176.405 373.172 176.3 373.34 176.221 373.535C176.147 373.727 176.098 373.938 176.075 374.168L175.77 374.344C175.77 373.961 175.807 373.602 175.882 373.266C175.96 372.93 176.079 372.633 176.239 372.375C176.399 372.113 176.602 371.91 176.848 371.766C177.098 371.617 177.395 371.543 177.739 371.543C177.817 371.543 177.907 371.553 178.009 371.572C178.11 371.588 178.18 371.605 178.22 371.625ZM183.776 371.66V378H182.686V371.66H183.776ZM182.604 369.979C182.604 369.803 182.657 369.654 182.762 369.533C182.871 369.412 183.032 369.352 183.243 369.352C183.45 369.352 183.608 369.412 183.717 369.533C183.83 369.654 183.887 369.803 183.887 369.979C183.887 370.146 183.83 370.291 183.717 370.412C183.608 370.529 183.45 370.588 183.243 370.588C183.032 370.588 182.871 370.529 182.762 370.412C182.657 370.291 182.604 370.146 182.604 369.979ZM186.8 373.014V378H185.716V371.66H186.741L186.8 373.014ZM186.542 374.59L186.091 374.572C186.095 374.139 186.159 373.738 186.284 373.371C186.409 373 186.585 372.678 186.812 372.404C187.038 372.131 187.308 371.92 187.62 371.771C187.937 371.619 188.286 371.543 188.669 371.543C188.982 371.543 189.263 371.586 189.513 371.672C189.763 371.754 189.976 371.887 190.152 372.07C190.331 372.254 190.468 372.492 190.562 372.785C190.655 373.074 190.702 373.428 190.702 373.846V378H189.613V373.834C189.613 373.502 189.564 373.236 189.466 373.037C189.368 372.834 189.226 372.688 189.038 372.598C188.851 372.504 188.62 372.457 188.347 372.457C188.077 372.457 187.831 372.514 187.609 372.627C187.39 372.74 187.2 372.896 187.04 373.096C186.884 373.295 186.761 373.523 186.671 373.781C186.585 374.035 186.542 374.305 186.542 374.59ZM195.203 371.66V372.492H191.775V371.66H195.203ZM192.936 370.119H194.02V376.43C194.02 376.645 194.053 376.807 194.119 376.916C194.186 377.025 194.271 377.098 194.377 377.133C194.482 377.168 194.596 377.186 194.717 377.186C194.807 377.186 194.9 377.178 194.998 377.162C195.1 377.143 195.176 377.127 195.227 377.115L195.232 378C195.146 378.027 195.033 378.053 194.893 378.076C194.756 378.104 194.59 378.117 194.395 378.117C194.129 378.117 193.885 378.064 193.662 377.959C193.439 377.854 193.262 377.678 193.129 377.432C193 377.182 192.936 376.846 192.936 376.424V370.119ZM200.554 376.535V371.66H201.643V378H200.606L200.554 376.535ZM200.759 375.199L201.21 375.188C201.21 375.609 201.165 376 201.075 376.359C200.989 376.715 200.848 377.023 200.653 377.285C200.458 377.547 200.202 377.752 199.886 377.9C199.569 378.045 199.184 378.117 198.731 378.117C198.423 378.117 198.139 378.072 197.882 377.982C197.628 377.893 197.409 377.754 197.225 377.566C197.042 377.379 196.899 377.135 196.798 376.834C196.7 376.533 196.651 376.172 196.651 375.75V371.66H197.735V375.762C197.735 376.047 197.766 376.283 197.829 376.471C197.895 376.654 197.983 376.801 198.093 376.91C198.206 377.016 198.331 377.09 198.468 377.133C198.608 377.176 198.753 377.197 198.901 377.197C199.362 377.197 199.727 377.109 199.997 376.934C200.266 376.754 200.46 376.514 200.577 376.213C200.698 375.908 200.759 375.57 200.759 375.199ZM204.673 371.66V378H203.584V371.66H204.673ZM203.502 369.979C203.502 369.803 203.554 369.654 203.66 369.533C203.769 369.412 203.929 369.352 204.14 369.352C204.347 369.352 204.505 369.412 204.615 369.533C204.728 369.654 204.785 369.803 204.785 369.979C204.785 370.146 204.728 370.291 204.615 370.412C204.505 370.529 204.347 370.588 204.14 370.588C203.929 370.588 203.769 370.529 203.66 370.412C203.554 370.291 203.502 370.146 203.502 369.979ZM209.268 371.66V372.492H205.84V371.66H209.268ZM207 370.119H208.084V376.43C208.084 376.645 208.118 376.807 208.184 376.916C208.25 377.025 208.336 377.098 208.442 377.133C208.547 377.168 208.661 377.186 208.782 377.186C208.871 377.186 208.965 377.178 209.063 377.162C209.164 377.143 209.241 377.127 209.291 377.115L209.297 378C209.211 378.027 209.098 378.053 208.957 378.076C208.821 378.104 208.655 378.117 208.459 378.117C208.194 378.117 207.95 378.064 207.727 377.959C207.504 377.854 207.327 377.678 207.194 377.432C207.065 377.182 207 376.846 207 376.424V370.119ZM211.917 371.66V378H210.827V371.66H211.917ZM210.745 369.979C210.745 369.803 210.798 369.654 210.904 369.533C211.013 369.412 211.173 369.352 211.384 369.352C211.591 369.352 211.749 369.412 211.859 369.533C211.972 369.654 212.029 369.803 212.029 369.979C212.029 370.146 211.972 370.291 211.859 370.412C211.749 370.529 211.591 370.588 211.384 370.588C211.173 370.588 211.013 370.529 210.904 370.412C210.798 370.291 210.745 370.146 210.745 369.979ZM213.57 374.9V374.766C213.57 374.309 213.637 373.885 213.77 373.494C213.902 373.1 214.094 372.758 214.344 372.469C214.594 372.176 214.896 371.949 215.252 371.789C215.607 371.625 216.006 371.543 216.447 371.543C216.893 371.543 217.293 371.625 217.648 371.789C218.008 371.949 218.312 372.176 218.562 372.469C218.816 372.758 219.01 373.1 219.143 373.494C219.275 373.885 219.342 374.309 219.342 374.766V374.9C219.342 375.357 219.275 375.781 219.143 376.172C219.01 376.562 218.816 376.904 218.562 377.197C218.312 377.486 218.01 377.713 217.654 377.877C217.303 378.037 216.904 378.117 216.459 378.117C216.014 378.117 215.613 378.037 215.258 377.877C214.902 377.713 214.598 377.486 214.344 377.197C214.094 376.904 213.902 376.562 213.77 376.172C213.637 375.781 213.57 375.357 213.57 374.9ZM214.654 374.766V374.9C214.654 375.217 214.691 375.516 214.766 375.797C214.84 376.074 214.951 376.32 215.1 376.535C215.252 376.75 215.441 376.92 215.668 377.045C215.895 377.166 216.158 377.227 216.459 377.227C216.756 377.227 217.016 377.166 217.238 377.045C217.465 376.92 217.652 376.75 217.801 376.535C217.949 376.32 218.061 376.074 218.135 375.797C218.213 375.516 218.252 375.217 218.252 374.9V374.766C218.252 374.453 218.213 374.158 218.135 373.881C218.061 373.6 217.947 373.352 217.795 373.137C217.646 372.918 217.459 372.746 217.232 372.621C217.01 372.496 216.748 372.434 216.447 372.434C216.15 372.434 215.889 372.496 215.662 372.621C215.439 372.746 215.252 372.918 215.1 373.137C214.951 373.352 214.84 373.6 214.766 373.881C214.691 374.158 214.654 374.453 214.654 374.766ZM221.985 373.014V378H220.901V371.66H221.927L221.985 373.014ZM221.727 374.59L221.276 374.572C221.28 374.139 221.345 373.738 221.47 373.371C221.595 373 221.77 372.678 221.997 372.404C222.223 372.131 222.493 371.92 222.805 371.771C223.122 371.619 223.471 371.543 223.854 371.543C224.167 371.543 224.448 371.586 224.698 371.672C224.948 371.754 225.161 371.887 225.337 372.07C225.516 372.254 225.653 372.492 225.747 372.785C225.841 373.074 225.888 373.428 225.888 373.846V378H224.798V373.834C224.798 373.502 224.749 373.236 224.651 373.037C224.554 372.834 224.411 372.688 224.223 372.598C224.036 372.504 223.805 372.457 223.532 372.457C223.263 372.457 223.016 372.514 222.794 372.627C222.575 372.74 222.386 372.896 222.225 373.096C222.069 373.295 221.946 373.523 221.856 373.781C221.77 374.035 221.727 374.305 221.727 374.59ZM227.752 377.426C227.752 377.242 227.808 377.088 227.921 376.963C228.039 376.834 228.207 376.77 228.425 376.77C228.644 376.77 228.81 376.834 228.923 376.963C229.041 377.088 229.099 377.242 229.099 377.426C229.099 377.605 229.041 377.758 228.923 377.883C228.81 378.008 228.644 378.07 228.425 378.07C228.207 378.07 228.039 378.008 227.921 377.883C227.808 377.758 227.752 377.605 227.752 377.426ZM110.389 389.137V390.057H105.771V389.137H110.389ZM105.947 385.469V394H104.816V385.469H105.947ZM111.373 385.469V394H110.248V385.469H111.373ZM114.596 387.66V394H113.507V387.66H114.596ZM113.425 385.979C113.425 385.803 113.477 385.654 113.583 385.533C113.692 385.412 113.852 385.352 114.063 385.352C114.27 385.352 114.429 385.412 114.538 385.533C114.651 385.654 114.708 385.803 114.708 385.979C114.708 386.146 114.651 386.291 114.538 386.412C114.429 386.529 114.27 386.588 114.063 386.588C113.852 386.588 113.692 386.529 113.583 386.412C113.477 386.291 113.425 386.146 113.425 385.979ZM120.533 392.77V385H121.623V394H120.627L120.533 392.77ZM116.267 390.9V390.777C116.267 390.293 116.326 389.854 116.443 389.459C116.564 389.061 116.734 388.719 116.953 388.434C117.175 388.148 117.439 387.93 117.744 387.777C118.052 387.621 118.396 387.543 118.775 387.543C119.173 387.543 119.521 387.613 119.818 387.754C120.119 387.891 120.373 388.092 120.58 388.357C120.791 388.619 120.957 388.936 121.078 389.307C121.199 389.678 121.283 390.098 121.33 390.566V391.105C121.287 391.57 121.203 391.988 121.078 392.359C120.957 392.73 120.791 393.047 120.58 393.309C120.373 393.57 120.119 393.771 119.818 393.912C119.517 394.049 119.166 394.117 118.763 394.117C118.392 394.117 118.052 394.037 117.744 393.877C117.439 393.717 117.175 393.492 116.953 393.203C116.734 392.914 116.564 392.574 116.443 392.184C116.326 391.789 116.267 391.361 116.267 390.9ZM117.357 390.777V390.9C117.357 391.217 117.388 391.514 117.451 391.791C117.517 392.068 117.619 392.312 117.755 392.523C117.892 392.734 118.066 392.9 118.277 393.021C118.488 393.139 118.74 393.197 119.033 393.197C119.392 393.197 119.687 393.121 119.918 392.969C120.152 392.816 120.339 392.615 120.48 392.365C120.621 392.115 120.73 391.844 120.808 391.551V390.139C120.761 389.924 120.693 389.717 120.603 389.518C120.517 389.314 120.404 389.135 120.263 388.979C120.127 388.818 119.957 388.691 119.754 388.598C119.554 388.504 119.318 388.457 119.045 388.457C118.748 388.457 118.492 388.52 118.277 388.645C118.066 388.766 117.892 388.934 117.755 389.148C117.619 389.359 117.517 389.605 117.451 389.887C117.388 390.164 117.357 390.461 117.357 390.777ZM127.506 392.77V385H128.596V394H127.6L127.506 392.77ZM123.241 390.9V390.777C123.241 390.293 123.299 389.854 123.416 389.459C123.537 389.061 123.707 388.719 123.926 388.434C124.149 388.148 124.412 387.93 124.717 387.777C125.026 387.621 125.37 387.543 125.748 387.543C126.147 387.543 126.495 387.613 126.791 387.754C127.092 387.891 127.346 388.092 127.553 388.357C127.764 388.619 127.93 388.936 128.051 389.307C128.172 389.678 128.256 390.098 128.303 390.566V391.105C128.26 391.57 128.176 391.988 128.051 392.359C127.93 392.73 127.764 393.047 127.553 393.309C127.346 393.57 127.092 393.771 126.791 393.912C126.491 394.049 126.139 394.117 125.737 394.117C125.366 394.117 125.026 394.037 124.717 393.877C124.412 393.717 124.149 393.492 123.926 393.203C123.707 392.914 123.537 392.574 123.416 392.184C123.299 391.789 123.241 391.361 123.241 390.9ZM124.33 390.777V390.9C124.33 391.217 124.362 391.514 124.424 391.791C124.491 392.068 124.592 392.312 124.729 392.523C124.866 392.734 125.039 392.9 125.25 393.021C125.461 393.139 125.713 393.197 126.006 393.197C126.366 393.197 126.661 393.121 126.891 392.969C127.125 392.816 127.313 392.615 127.454 392.365C127.594 392.115 127.704 391.844 127.782 391.551V390.139C127.735 389.924 127.666 389.717 127.577 389.518C127.491 389.314 127.377 389.135 127.237 388.979C127.1 388.818 126.93 388.691 126.727 388.598C126.528 388.504 126.291 388.457 126.018 388.457C125.721 388.457 125.465 388.52 125.25 388.645C125.039 388.766 124.866 388.934 124.729 389.148C124.592 389.359 124.491 389.605 124.424 389.887C124.362 390.164 124.33 390.461 124.33 390.777ZM133.114 394.117C132.673 394.117 132.273 394.043 131.913 393.895C131.558 393.742 131.251 393.529 130.993 393.256C130.739 392.982 130.544 392.658 130.407 392.283C130.271 391.908 130.202 391.498 130.202 391.053V390.807C130.202 390.291 130.279 389.832 130.431 389.43C130.583 389.023 130.79 388.68 131.052 388.398C131.314 388.117 131.611 387.904 131.943 387.76C132.275 387.615 132.618 387.543 132.974 387.543C133.427 387.543 133.818 387.621 134.146 387.777C134.478 387.934 134.749 388.152 134.96 388.434C135.171 388.711 135.327 389.039 135.429 389.418C135.53 389.793 135.581 390.203 135.581 390.648V391.135H130.847V390.25H134.497V390.168C134.482 389.887 134.423 389.613 134.321 389.348C134.224 389.082 134.068 388.863 133.853 388.691C133.638 388.52 133.345 388.434 132.974 388.434C132.728 388.434 132.501 388.486 132.294 388.592C132.087 388.693 131.909 388.846 131.761 389.049C131.612 389.252 131.497 389.5 131.415 389.793C131.333 390.086 131.292 390.424 131.292 390.807V391.053C131.292 391.354 131.333 391.637 131.415 391.902C131.501 392.164 131.624 392.395 131.784 392.594C131.948 392.793 132.146 392.949 132.376 393.062C132.611 393.176 132.876 393.232 133.173 393.232C133.556 393.232 133.88 393.154 134.146 392.998C134.411 392.842 134.644 392.633 134.843 392.371L135.499 392.893C135.362 393.1 135.189 393.297 134.978 393.484C134.767 393.672 134.507 393.824 134.198 393.941C133.894 394.059 133.532 394.117 133.114 394.117ZM138.131 389.014V394H137.047V387.66H138.072L138.131 389.014ZM137.873 390.59L137.422 390.572C137.426 390.139 137.49 389.738 137.615 389.371C137.74 389 137.916 388.678 138.143 388.404C138.369 388.131 138.639 387.92 138.951 387.771C139.268 387.619 139.617 387.543 140 387.543C140.312 387.543 140.594 387.586 140.844 387.672C141.094 387.754 141.307 387.887 141.482 388.07C141.662 388.254 141.799 388.492 141.893 388.785C141.986 389.074 142.033 389.428 142.033 389.846V394H140.943V389.834C140.943 389.502 140.895 389.236 140.797 389.037C140.699 388.834 140.557 388.688 140.369 388.598C140.182 388.504 139.951 388.457 139.678 388.457C139.408 388.457 139.162 388.514 138.939 388.627C138.721 388.74 138.531 388.896 138.371 389.096C138.215 389.295 138.092 389.523 138.002 389.781C137.916 390.035 137.873 390.305 137.873 390.59ZM149.711 387.66V388.492H146.283V387.66H149.711ZM147.443 386.119H148.527V392.43C148.527 392.645 148.56 392.807 148.627 392.916C148.693 393.025 148.779 393.098 148.884 393.133C148.99 393.168 149.103 393.186 149.224 393.186C149.314 393.186 149.408 393.178 149.505 393.162C149.607 393.143 149.683 393.127 149.734 393.115L149.74 394C149.654 394.027 149.541 394.053 149.4 394.076C149.263 394.104 149.097 394.117 148.902 394.117C148.636 394.117 148.392 394.064 148.17 393.959C147.947 393.854 147.769 393.678 147.636 393.432C147.507 393.182 147.443 392.846 147.443 392.424V386.119ZM152.266 388.656V394H151.182V387.66H152.237L152.266 388.656ZM154.246 387.625L154.241 388.633C154.151 388.613 154.065 388.602 153.983 388.598C153.905 388.59 153.815 388.586 153.713 388.586C153.463 388.586 153.243 388.625 153.051 388.703C152.86 388.781 152.698 388.891 152.565 389.031C152.432 389.172 152.327 389.34 152.248 389.535C152.174 389.727 152.125 389.938 152.102 390.168L151.797 390.344C151.797 389.961 151.834 389.602 151.909 389.266C151.987 388.93 152.106 388.633 152.266 388.375C152.426 388.113 152.629 387.91 152.875 387.766C153.125 387.617 153.422 387.543 153.766 387.543C153.844 387.543 153.934 387.553 154.036 387.572C154.137 387.588 154.207 387.605 154.246 387.625ZM159.327 392.535V387.66H160.417V394H159.38L159.327 392.535ZM159.532 391.199L159.984 391.188C159.984 391.609 159.939 392 159.849 392.359C159.763 392.715 159.622 393.023 159.427 393.285C159.232 393.547 158.976 393.752 158.659 393.9C158.343 394.045 157.958 394.117 157.505 394.117C157.196 394.117 156.913 394.072 156.655 393.982C156.402 393.893 156.183 393.754 155.999 393.566C155.816 393.379 155.673 393.135 155.571 392.834C155.474 392.533 155.425 392.172 155.425 391.75V387.66H156.509V391.762C156.509 392.047 156.54 392.283 156.603 392.471C156.669 392.654 156.757 392.801 156.866 392.91C156.98 393.016 157.105 393.09 157.241 393.133C157.382 393.176 157.527 393.197 157.675 393.197C158.136 393.197 158.501 393.109 158.771 392.934C159.04 392.754 159.234 392.514 159.351 392.213C159.472 391.908 159.532 391.57 159.532 391.199ZM164.924 387.66V388.492H161.496V387.66H164.924ZM162.656 386.119H163.74V392.43C163.74 392.645 163.773 392.807 163.84 392.916C163.906 393.025 163.992 393.098 164.098 393.133C164.203 393.168 164.316 393.186 164.438 393.186C164.527 393.186 164.621 393.178 164.719 393.162C164.82 393.143 164.896 393.127 164.947 393.115L164.953 394C164.867 394.027 164.754 394.053 164.613 394.076C164.477 394.104 164.311 394.117 164.115 394.117C163.85 394.117 163.605 394.064 163.383 393.959C163.16 393.854 162.982 393.678 162.85 393.432C162.721 393.182 162.656 392.846 162.656 392.424V386.119ZM167.479 385V394H166.395V385H167.479ZM167.221 390.59L166.77 390.572C166.774 390.139 166.839 389.738 166.964 389.371C167.089 389 167.264 388.678 167.491 388.404C167.718 388.131 167.987 387.92 168.3 387.771C168.616 387.619 168.966 387.543 169.348 387.543C169.661 387.543 169.942 387.586 170.192 387.672C170.442 387.754 170.655 387.887 170.831 388.07C171.011 388.254 171.147 388.492 171.241 388.785C171.335 389.074 171.382 389.428 171.382 389.846V394H170.292V389.834C170.292 389.502 170.243 389.236 170.145 389.037C170.048 388.834 169.905 388.688 169.718 388.598C169.53 388.504 169.3 388.457 169.026 388.457C168.757 388.457 168.511 388.514 168.288 388.627C168.069 388.74 167.88 388.896 167.72 389.096C167.563 389.295 167.44 389.523 167.35 389.781C167.264 390.035 167.221 390.305 167.221 390.59ZM176.896 392.318C176.896 392.162 176.861 392.018 176.791 391.885C176.724 391.748 176.586 391.625 176.375 391.516C176.168 391.402 175.855 391.305 175.437 391.223C175.086 391.148 174.767 391.061 174.482 390.959C174.201 390.857 173.961 390.734 173.761 390.59C173.566 390.445 173.416 390.275 173.31 390.08C173.205 389.885 173.152 389.656 173.152 389.395C173.152 389.145 173.207 388.908 173.316 388.686C173.429 388.463 173.588 388.266 173.791 388.094C173.998 387.922 174.246 387.787 174.535 387.689C174.824 387.592 175.146 387.543 175.502 387.543C176.009 387.543 176.443 387.633 176.802 387.812C177.162 387.992 177.437 388.232 177.629 388.533C177.82 388.83 177.916 389.16 177.916 389.523H176.832C176.832 389.348 176.779 389.178 176.673 389.014C176.572 388.846 176.421 388.707 176.222 388.598C176.027 388.488 175.787 388.434 175.502 388.434C175.201 388.434 174.957 388.48 174.769 388.574C174.586 388.664 174.451 388.779 174.365 388.92C174.283 389.061 174.242 389.209 174.242 389.365C174.242 389.482 174.261 389.588 174.3 389.682C174.343 389.771 174.418 389.855 174.523 389.934C174.629 390.008 174.777 390.078 174.968 390.145C175.16 390.211 175.404 390.277 175.701 390.344C176.22 390.461 176.648 390.602 176.984 390.766C177.32 390.93 177.57 391.131 177.734 391.369C177.898 391.607 177.98 391.896 177.98 392.236C177.98 392.514 177.921 392.768 177.804 392.998C177.691 393.229 177.525 393.428 177.306 393.596C177.091 393.76 176.834 393.889 176.533 393.982C176.236 394.072 175.902 394.117 175.531 394.117C174.972 394.117 174.5 394.018 174.113 393.818C173.726 393.619 173.433 393.361 173.234 393.045C173.035 392.729 172.935 392.395 172.935 392.043H174.025C174.041 392.34 174.127 392.576 174.283 392.752C174.439 392.924 174.63 393.047 174.857 393.121C175.084 393.191 175.308 393.227 175.531 393.227C175.828 393.227 176.076 393.188 176.275 393.109C176.478 393.031 176.632 392.924 176.738 392.787C176.843 392.65 176.896 392.494 176.896 392.318ZM186.472 392.318C186.472 392.162 186.437 392.018 186.366 391.885C186.3 391.748 186.161 391.625 185.95 391.516C185.743 391.402 185.431 391.305 185.013 391.223C184.661 391.148 184.343 391.061 184.058 390.959C183.777 390.857 183.536 390.734 183.337 390.59C183.142 390.445 182.991 390.275 182.886 390.08C182.78 389.885 182.728 389.656 182.728 389.395C182.728 389.145 182.782 388.908 182.892 388.686C183.005 388.463 183.163 388.266 183.366 388.094C183.573 387.922 183.821 387.787 184.111 387.689C184.4 387.592 184.722 387.543 185.077 387.543C185.585 387.543 186.019 387.633 186.378 387.812C186.738 387.992 187.013 388.232 187.204 388.533C187.396 388.83 187.491 389.16 187.491 389.523H186.407C186.407 389.348 186.355 389.178 186.249 389.014C186.148 388.846 185.997 388.707 185.798 388.598C185.603 388.488 185.363 388.434 185.077 388.434C184.777 388.434 184.532 388.48 184.345 388.574C184.161 388.664 184.027 388.779 183.941 388.92C183.859 389.061 183.818 389.209 183.818 389.365C183.818 389.482 183.837 389.588 183.876 389.682C183.919 389.771 183.993 389.855 184.099 389.934C184.204 390.008 184.353 390.078 184.544 390.145C184.736 390.211 184.98 390.277 185.277 390.344C185.796 390.461 186.224 390.602 186.56 390.766C186.896 390.93 187.146 391.131 187.31 391.369C187.474 391.607 187.556 391.896 187.556 392.236C187.556 392.514 187.497 392.768 187.38 392.998C187.267 393.229 187.101 393.428 186.882 393.596C186.667 393.76 186.409 393.889 186.109 393.982C185.812 394.072 185.478 394.117 185.107 394.117C184.548 394.117 184.075 394.018 183.689 393.818C183.302 393.619 183.009 393.361 182.81 393.045C182.611 392.729 182.511 392.395 182.511 392.043H183.601C183.616 392.34 183.702 392.576 183.859 392.752C184.015 392.924 184.206 393.047 184.433 393.121C184.659 393.191 184.884 393.227 185.107 393.227C185.404 393.227 185.652 393.188 185.851 393.109C186.054 393.031 186.208 392.924 186.314 392.787C186.419 392.65 186.472 392.494 186.472 392.318ZM193.059 392.535V387.66H194.148V394H193.111L193.059 392.535ZM193.264 391.199L193.715 391.188C193.715 391.609 193.67 392 193.58 392.359C193.494 392.715 193.354 393.023 193.158 393.285C192.963 393.547 192.707 393.752 192.391 393.9C192.074 394.045 191.689 394.117 191.236 394.117C190.928 394.117 190.645 394.072 190.387 393.982C190.133 393.893 189.914 393.754 189.73 393.566C189.547 393.379 189.404 393.135 189.303 392.834C189.205 392.533 189.156 392.172 189.156 391.75V387.66H190.24V391.762C190.24 392.047 190.271 392.283 190.334 392.471C190.4 392.654 190.488 392.801 190.598 392.91C190.711 393.016 190.836 393.09 190.973 393.133C191.113 393.176 191.258 393.197 191.406 393.197C191.867 393.197 192.232 393.109 192.502 392.934C192.771 392.754 192.965 392.514 193.082 392.213C193.203 391.908 193.264 391.57 193.264 391.199ZM197.085 388.656V394H196.001V387.66H197.055L197.085 388.656ZM199.065 387.625L199.059 388.633C198.97 388.613 198.884 388.602 198.802 388.598C198.723 388.59 198.634 388.586 198.532 388.586C198.282 388.586 198.061 388.625 197.87 388.703C197.679 388.781 197.516 388.891 197.384 389.031C197.251 389.172 197.145 389.34 197.067 389.535C196.993 389.727 196.944 389.938 196.921 390.168L196.616 390.344C196.616 389.961 196.653 389.602 196.727 389.266C196.805 388.93 196.925 388.633 197.085 388.375C197.245 388.113 197.448 387.91 197.694 387.766C197.944 387.617 198.241 387.543 198.585 387.543C198.663 387.543 198.753 387.553 198.854 387.572C198.956 387.588 199.026 387.605 199.065 387.625ZM201.978 394H200.894V386.992C200.894 386.535 200.976 386.15 201.14 385.838C201.308 385.521 201.548 385.283 201.861 385.123C202.173 384.959 202.545 384.877 202.974 384.877C203.099 384.877 203.224 384.885 203.349 384.9C203.478 384.916 203.603 384.939 203.724 384.971L203.666 385.855C203.584 385.836 203.49 385.822 203.384 385.814C203.283 385.807 203.181 385.803 203.08 385.803C202.849 385.803 202.65 385.85 202.482 385.943C202.318 386.033 202.193 386.166 202.107 386.342C202.021 386.518 201.978 386.734 201.978 386.992V394ZM203.326 387.66V388.492H199.892V387.66H203.326ZM208.471 392.916V389.652C208.471 389.402 208.42 389.186 208.319 389.002C208.221 388.814 208.073 388.67 207.873 388.568C207.674 388.467 207.428 388.416 207.135 388.416C206.862 388.416 206.621 388.463 206.414 388.557C206.211 388.65 206.051 388.773 205.934 388.926C205.821 389.078 205.764 389.242 205.764 389.418H204.68C204.68 389.191 204.739 388.967 204.856 388.744C204.973 388.521 205.141 388.32 205.36 388.141C205.582 387.957 205.848 387.812 206.157 387.707C206.469 387.598 206.817 387.543 207.2 387.543C207.661 387.543 208.067 387.621 208.418 387.777C208.774 387.934 209.051 388.17 209.25 388.486C209.454 388.799 209.555 389.191 209.555 389.664V392.617C209.555 392.828 209.573 393.053 209.608 393.291C209.647 393.529 209.704 393.734 209.778 393.906V394H208.647C208.592 393.875 208.549 393.709 208.518 393.502C208.487 393.291 208.471 393.096 208.471 392.916ZM208.659 390.156L208.67 390.918H207.575C207.266 390.918 206.991 390.943 206.748 390.994C206.506 391.041 206.303 391.113 206.139 391.211C205.975 391.309 205.85 391.432 205.764 391.58C205.678 391.725 205.635 391.895 205.635 392.09C205.635 392.289 205.68 392.471 205.77 392.635C205.86 392.799 205.995 392.93 206.174 393.027C206.358 393.121 206.582 393.168 206.848 393.168C207.18 393.168 207.473 393.098 207.727 392.957C207.981 392.816 208.182 392.645 208.33 392.441C208.483 392.238 208.565 392.041 208.577 391.85L209.039 392.371C209.012 392.535 208.938 392.717 208.817 392.916C208.696 393.115 208.534 393.307 208.33 393.49C208.131 393.67 207.893 393.82 207.616 393.941C207.342 394.059 207.034 394.117 206.69 394.117C206.26 394.117 205.883 394.033 205.559 393.865C205.239 393.697 204.989 393.473 204.809 393.191C204.633 392.906 204.545 392.588 204.545 392.236C204.545 391.896 204.612 391.598 204.745 391.34C204.877 391.078 205.069 390.861 205.319 390.689C205.569 390.514 205.87 390.381 206.221 390.291C206.573 390.201 206.965 390.156 207.399 390.156H208.659ZM213.997 393.227C214.255 393.227 214.493 393.174 214.712 393.068C214.931 392.963 215.111 392.818 215.251 392.635C215.392 392.447 215.472 392.234 215.491 391.996H216.523C216.503 392.371 216.376 392.721 216.142 393.045C215.911 393.365 215.609 393.625 215.234 393.824C214.859 394.02 214.446 394.117 213.997 394.117C213.521 394.117 213.105 394.033 212.749 393.865C212.398 393.697 212.105 393.467 211.87 393.174C211.64 392.881 211.466 392.545 211.349 392.166C211.236 391.783 211.179 391.379 211.179 390.953V390.707C211.179 390.281 211.236 389.879 211.349 389.5C211.466 389.117 211.64 388.779 211.87 388.486C212.105 388.193 212.398 387.963 212.749 387.795C213.105 387.627 213.521 387.543 213.997 387.543C214.493 387.543 214.927 387.645 215.298 387.848C215.669 388.047 215.96 388.32 216.171 388.668C216.386 389.012 216.503 389.402 216.523 389.84H215.491C215.472 389.578 215.398 389.342 215.269 389.131C215.144 388.92 214.972 388.752 214.753 388.627C214.538 388.498 214.286 388.434 213.997 388.434C213.665 388.434 213.386 388.5 213.159 388.633C212.937 388.762 212.759 388.938 212.626 389.16C212.497 389.379 212.404 389.623 212.345 389.893C212.29 390.158 212.263 390.43 212.263 390.707V390.953C212.263 391.23 212.29 391.504 212.345 391.773C212.4 392.043 212.491 392.287 212.62 392.506C212.753 392.725 212.931 392.9 213.154 393.033C213.38 393.162 213.661 393.227 213.997 393.227ZM220.572 394.117C220.131 394.117 219.73 394.043 219.371 393.895C219.016 393.742 218.709 393.529 218.451 393.256C218.197 392.982 218.002 392.658 217.865 392.283C217.729 391.908 217.66 391.498 217.66 391.053V390.807C217.66 390.291 217.736 389.832 217.889 389.43C218.041 389.023 218.248 388.68 218.51 388.398C218.771 388.117 219.068 387.904 219.4 387.76C219.732 387.615 220.076 387.543 220.432 387.543C220.885 387.543 221.275 387.621 221.604 387.777C221.936 387.934 222.207 388.152 222.418 388.434C222.629 388.711 222.785 389.039 222.887 389.418C222.988 389.793 223.039 390.203 223.039 390.648V391.135H218.305V390.25H221.955V390.168C221.939 389.887 221.881 389.613 221.779 389.348C221.682 389.082 221.525 388.863 221.311 388.691C221.096 388.52 220.803 388.434 220.432 388.434C220.186 388.434 219.959 388.486 219.752 388.592C219.545 388.693 219.367 388.846 219.219 389.049C219.07 389.252 218.955 389.5 218.873 389.793C218.791 390.086 218.75 390.424 218.75 390.807V391.053C218.75 391.354 218.791 391.637 218.873 391.902C218.959 392.164 219.082 392.395 219.242 392.594C219.406 392.793 219.604 392.949 219.834 393.062C220.068 393.176 220.334 393.232 220.631 393.232C221.014 393.232 221.338 393.154 221.604 392.998C221.869 392.842 222.102 392.633 222.301 392.371L222.957 392.893C222.82 393.1 222.646 393.297 222.436 393.484C222.225 393.672 221.965 393.824 221.656 393.941C221.352 394.059 220.99 394.117 220.572 394.117ZM228.765 389.014V394H227.681V387.66H228.707L228.765 389.014ZM228.507 390.59L228.056 390.572C228.06 390.139 228.125 389.738 228.25 389.371C228.375 389 228.55 388.678 228.777 388.404C229.004 388.131 229.273 387.92 229.586 387.771C229.902 387.619 230.252 387.543 230.634 387.543C230.947 387.543 231.228 387.586 231.478 387.672C231.728 387.754 231.941 387.887 232.117 388.07C232.296 388.254 232.433 388.492 232.527 388.785C232.621 389.074 232.668 389.428 232.668 389.846V394H231.578V389.834C231.578 389.502 231.529 389.236 231.431 389.037C231.334 388.834 231.191 388.688 231.004 388.598C230.816 388.504 230.586 388.457 230.312 388.457C230.043 388.457 229.796 388.514 229.574 388.627C229.355 388.74 229.166 388.896 229.005 389.096C228.849 389.295 228.726 389.523 228.636 389.781C228.55 390.035 228.507 390.305 228.507 390.59ZM234.227 390.9V390.766C234.227 390.309 234.293 389.885 234.426 389.494C234.559 389.1 234.75 388.758 235 388.469C235.25 388.176 235.553 387.949 235.909 387.789C236.264 387.625 236.663 387.543 237.104 387.543C237.549 387.543 237.95 387.625 238.305 387.789C238.664 387.949 238.969 388.176 239.219 388.469C239.473 388.758 239.666 389.1 239.799 389.494C239.932 389.885 239.998 390.309 239.998 390.766V390.9C239.998 391.357 239.932 391.781 239.799 392.172C239.666 392.562 239.473 392.904 239.219 393.197C238.969 393.486 238.666 393.713 238.311 393.877C237.959 394.037 237.561 394.117 237.116 394.117C236.67 394.117 236.27 394.037 235.914 393.877C235.559 393.713 235.254 393.486 235 393.197C234.75 392.904 234.559 392.562 234.426 392.172C234.293 391.781 234.227 391.357 234.227 390.9ZM235.311 390.766V390.9C235.311 391.217 235.348 391.516 235.422 391.797C235.496 392.074 235.608 392.32 235.756 392.535C235.909 392.75 236.098 392.92 236.325 393.045C236.551 393.166 236.815 393.227 237.116 393.227C237.413 393.227 237.672 393.166 237.895 393.045C238.121 392.92 238.309 392.75 238.457 392.535C238.606 392.32 238.717 392.074 238.791 391.797C238.87 391.516 238.909 391.217 238.909 390.9V390.766C238.909 390.453 238.87 390.158 238.791 389.881C238.717 389.6 238.604 389.352 238.452 389.137C238.303 388.918 238.116 388.746 237.889 388.621C237.666 388.496 237.405 388.434 237.104 388.434C236.807 388.434 236.545 388.496 236.319 388.621C236.096 388.746 235.909 388.918 235.756 389.137C235.608 389.352 235.496 389.6 235.422 389.881C235.348 390.158 235.311 390.453 235.311 390.766ZM243.163 392.875L244.792 387.66H245.507L245.366 388.697L243.708 394H243.011L243.163 392.875ZM242.068 387.66L243.456 392.934L243.556 394H242.823L240.984 387.66H242.068ZM247.066 392.893L248.39 387.66H249.468L247.628 394H246.902L247.066 392.893ZM245.665 387.66L247.259 392.787L247.441 394H246.749L245.044 388.686L244.904 387.66H245.665ZM250.072 393.426C250.072 393.242 250.129 393.088 250.242 392.963C250.359 392.834 250.527 392.77 250.746 392.77C250.965 392.77 251.131 392.834 251.244 392.963C251.361 393.088 251.42 393.242 251.42 393.426C251.42 393.605 251.361 393.758 251.244 393.883C251.131 394.008 250.965 394.07 250.746 394.07C250.527 394.07 250.359 394.008 250.242 393.883C250.129 393.758 250.072 393.605 250.072 393.426Z" fill="white" fill-opacity="0.6"/>
<g filter="url(#filter1_f_161_42020)">
<path d="M75 210.5C75 162.175 114.175 123 162.5 123H193.5C241.825 123 281 162.175 281 210.5C281 258.825 241.825 298 193.5 298H162.5C114.175 298 75 258.825 75 210.5Z" fill="#F59E0B" fill-opacity="0.05"/>
</g>
<g filter="url(#filter2_d_161_42020)">
<path d="M213.94 212.444C213.565 219.389 211.187 226.076 207.092 231.698C202.998 237.319 197.363 241.635 190.868 244.122C184.373 246.61 177.297 247.162 170.495 245.714C163.693 244.266 157.456 240.878 152.538 235.961C147.62 231.043 144.231 224.806 142.782 218.004C141.333 211.202 141.885 204.126 144.372 197.631C146.859 191.136 151.174 185.501 156.795 181.406C162.416 177.311 169.103 174.932 176.048 174.556C177.668 174.468 178.516 176.396 177.656 177.768C174.779 182.37 173.548 187.811 174.162 193.204C174.776 198.596 177.2 203.621 181.037 207.459C184.875 211.296 189.9 213.72 195.292 214.334C200.684 214.948 206.126 213.716 210.728 210.84C212.104 209.98 214.028 210.824 213.94 212.444Z" stroke="#F59E0B" stroke-width="4" stroke-linecap="round" stroke-linejoin="round"/>
</g>
</g>
<path d="M66 50V51H290V50V49H66V50ZM306 66H305V418H306H307V66H306ZM290 434V433H66V434V435H290V434ZM50 418H51V66H50H49V418H50ZM66 434V433C57.7157 433 51 426.284 51 418H50H49C49 427.389 56.6112 435 66 435V434ZM306 418H305C305 426.284 298.284 433 290 433V434V435C299.389 435 307 427.389 307 418H306ZM290 50V51C298.284 51 305 57.7157 305 66H306H307C307 56.6112 299.389 49 290 49V50ZM66 50V49C56.6112 49 49 56.6112 49 66H50H51C51 57.7157 57.7157 51 66 51V50Z" fill="#F59E0B" fill-opacity="0.5" mask="url(#path-1-inside-1_161_42020)"/>
</g>
<defs>
<filter id="filter0_d_161_42020" x="0" y="0" width="356" height="484" filterUnits="userSpaceOnUse" color-interpolation-filters="sRGB">
<feFlood flood-opacity="0" result="BackgroundImageFix"/>
<feColorMatrix in="SourceAlpha" type="matrix" values="0 0 0 0 0 0 0 0 0 0 0 0 0 0 0 0 0 0 127 0" result="hardAlpha"/>
<feOffset/>
<feGaussianBlur stdDeviation="25"/>
<feComposite in2="hardAlpha" operator="out"/>
<feColorMatrix type="matrix" values="0 0 0 0 0.960784 0 0 0 0 0.619608 0 0 0 0 0.0431373 0 0 0 0.15 0"/>
<feBlend mode="normal" in2="BackgroundImageFix" result="effect1_dropShadow_161_42020"/>
<feBlend mode="normal" in="SourceGraphic" in2="effect1_dropShadow_161_42020" result="shape"/>
</filter>
<filter id="filter1_f_161_42020" x="-5" y="43" width="366" height="335" filterUnits="userSpaceOnUse" color-interpolation-filters="sRGB">
<feFlood flood-opacity="0" result="BackgroundImageFix"/>
<feBlend mode="normal" in="SourceGraphic" in2="BackgroundImageFix" result="shape"/>
<feGaussianBlur stdDeviation="40" result="effect1_foregroundBlur_161_42020"/>
</filter>
<filter id="filter2_d_161_42020" x="100" y="132.5" width="156" height="156" filterUnits="userSpaceOnUse" color-interpolation-filters="sRGB">
<feFlood flood-opacity="0" result="BackgroundImageFix"/>
<feColorMatrix in="SourceAlpha" type="matrix" values="0 0 0 0 0 0 0 0 0 0 0 0 0 0 0 0 0 0 127 0" result="hardAlpha"/>
<feOffset/>
<feGaussianBlur stdDeviation="15"/>
<feColorMatrix type="matrix" values="0 0 0 0 0.960784 0 0 0 0 0.619608 0 0 0 0 0.0431373 0 0 0 0.6 0"/>
<feBlend mode="normal" in2="BackgroundImageFix" result="effect1_dropShadow_161_42020"/>
<feBlend mode="normal" in="SourceGraphic" in2="effect1_dropShadow_161_42020" result="shape"/>
</filter>
<clipPath id="clip0_161_42020">
<path d="M50 66C50 57.1635 57.1634 50 66 50H290C298.837 50 306 57.1634 306 66V418C306 426.837 298.837 434 290 434H66C57.1634 434 50 426.837 50 418V66Z" fill="white"/>
</clipPath>
</defs>
</svg>
