<svg width="356" height="484" viewBox="0 0 356 484" fill="none" xmlns="http://www.w3.org/2000/svg">
<g filter="url(#filter0_d_161_42020)">
<g clip-path="url(#clip0_161_42020)">
<mask id="path-1-inside-1_161_42020" fill="white">
<path d="M50 66C50 57.1635 57.1634 50 66 50H290C298.837 50 306 57.1634 306 66V418C306 426.837 298.837 434 290 434H66C57.1634 434 50 426.837 50 418V66Z"/>
</mask>
<path d="M50 66C50 57.1635 57.1634 50 66 50H290C298.837 50 306 57.1634 306 66V418C306 426.837 298.837 434 290 434H66C57.1634 434 50 426.837 50 418V66Z" fill="black" fill-opacity="0.4" shape-rendering="crispEdges"/>
<path d="M120.741 80.0469H122.272L125.15 87.7236L128.021 80.0469H129.553L125.752 90H124.535L120.741 80.0469ZM120.044 80.0469H121.5L121.753 86.6914V90H120.044V80.0469ZM128.794 80.0469H130.257V90H128.541V86.6914L128.794 80.0469ZM137.397 83.6699L135.005 90H133.337L136.543 82.0361H137.65L137.397 83.6699ZM139.605 90L137.199 83.6562L136.946 82.0361H138.074L141.273 90H139.605ZM139.503 87.0469V88.2842H134.95V87.0469H139.503ZM147.621 87.4912V82.0361H149.275V87.4912C149.275 88.0426 149.152 88.5143 148.906 88.9062C148.66 89.2936 148.327 89.5921 147.908 89.8018C147.493 90.0068 147.026 90.1094 146.507 90.1094C145.937 90.1094 145.434 90.0205 144.996 89.8428C144.559 89.6605 144.215 89.3848 143.964 89.0156C143.718 88.6419 143.595 88.168 143.595 87.5938H145.249C145.249 87.8763 145.299 88.1087 145.399 88.291C145.5 88.4688 145.643 88.5986 145.83 88.6807C146.021 88.7627 146.247 88.8037 146.507 88.8037C146.739 88.8037 146.938 88.7536 147.102 88.6533C147.27 88.5531 147.398 88.4072 147.484 88.2158C147.576 88.0199 147.621 87.7783 147.621 87.4912ZM159.8 85.8301V86.2129C159.8 86.819 159.713 87.3613 159.54 87.8398C159.367 88.3184 159.121 88.7285 158.802 89.0703C158.487 89.4076 158.109 89.665 157.667 89.8428C157.225 90.0205 156.737 90.1094 156.204 90.1094C155.671 90.1094 155.183 90.0205 154.741 89.8428C154.299 89.665 153.916 89.4076 153.593 89.0703C153.269 88.7285 153.019 88.3184 152.841 87.8398C152.668 87.3613 152.581 86.819 152.581 86.2129V85.8301C152.581 85.224 152.668 84.6816 152.841 84.2031C153.019 83.7246 153.267 83.3145 153.586 82.9727C153.905 82.6309 154.285 82.3711 154.728 82.1934C155.17 82.0156 155.657 81.9268 156.19 81.9268C156.728 81.9268 157.216 82.0156 157.653 82.1934C158.095 82.3711 158.476 82.6309 158.795 82.9727C159.118 83.3145 159.367 83.7246 159.54 84.2031C159.713 84.6816 159.8 85.224 159.8 85.8301ZM158.152 86.2129V85.8164C158.152 85.4017 158.109 85.0348 158.022 84.7158C157.936 84.3968 157.806 84.1279 157.633 83.9092C157.464 83.6904 157.259 83.5241 157.018 83.4102C156.776 83.2962 156.5 83.2393 156.19 83.2393C155.885 83.2393 155.609 83.2962 155.363 83.4102C155.122 83.5241 154.917 83.6904 154.748 83.9092C154.584 84.1279 154.456 84.3968 154.365 84.7158C154.279 85.0348 154.235 85.4017 154.235 85.8164V86.2129C154.235 86.623 154.279 86.9899 154.365 87.3135C154.456 87.6325 154.586 87.9036 154.755 88.127C154.928 88.3457 155.135 88.5143 155.377 88.6328C155.623 88.7467 155.899 88.8037 156.204 88.8037C156.514 88.8037 156.787 88.7467 157.024 88.6328C157.266 88.5143 157.471 88.3457 157.64 88.127C157.808 87.9036 157.936 87.6325 158.022 87.3135C158.109 86.9899 158.152 86.623 158.152 86.2129ZM163.146 82.0361H166.284C166.772 82.0361 167.209 82.0885 167.597 82.1934C167.984 82.2982 168.312 82.4531 168.581 82.6582C168.854 82.8587 169.062 83.1094 169.203 83.4102C169.349 83.7064 169.422 84.0505 169.422 84.4424C169.422 84.8753 169.344 85.2467 169.189 85.5566C169.035 85.862 168.816 86.1149 168.533 86.3154C168.251 86.516 167.918 86.6777 167.535 86.8008L167.009 87.0879H164.24L164.227 85.7754H166.305C166.633 85.7754 166.904 85.7253 167.118 85.625C167.332 85.5247 167.494 85.3857 167.604 85.208C167.713 85.0257 167.768 84.8161 167.768 84.5791C167.768 84.3285 167.713 84.112 167.604 83.9297C167.499 83.7428 167.335 83.5993 167.111 83.499C166.893 83.3988 166.617 83.3486 166.284 83.3486H164.801V90H163.146V82.0361ZM167.973 90L166.004 86.4727L167.747 86.459L169.75 89.9248V90H167.973ZM182.404 81.373L179.431 90H177.633L181.379 80.0469H182.527L182.404 81.373ZM184.893 90L181.912 81.373L181.782 80.0469H182.938L186.697 90H184.893ZM184.749 86.3086V87.6689H179.335V86.3086H184.749ZM189.6 82.0361H192.737C193.225 82.0361 193.662 82.0885 194.05 82.1934C194.437 82.2982 194.765 82.4531 195.034 82.6582C195.308 82.8587 195.515 83.1094 195.656 83.4102C195.802 83.7064 195.875 84.0505 195.875 84.4424C195.875 84.8753 195.798 85.2467 195.643 85.5566C195.488 85.862 195.269 86.1149 194.986 86.3154C194.704 86.516 194.371 86.6777 193.988 86.8008L193.462 87.0879H190.693L190.68 85.7754H192.758C193.086 85.7754 193.357 85.7253 193.571 85.625C193.785 85.5247 193.947 85.3857 194.057 85.208C194.166 85.0257 194.221 84.8161 194.221 84.5791C194.221 84.3285 194.166 84.112 194.057 83.9297C193.952 83.7428 193.788 83.5993 193.564 83.499C193.346 83.3988 193.07 83.3486 192.737 83.3486H191.254V90H189.6V82.0361ZM194.426 90L192.457 86.4727L194.2 86.459L196.203 89.9248V90H194.426ZM204.28 87.3477H205.935C205.894 87.89 205.734 88.3685 205.456 88.7832C205.183 89.1979 204.8 89.5238 204.308 89.7607C203.815 89.9932 203.221 90.1094 202.523 90.1094C201.981 90.1094 201.493 90.0205 201.061 89.8428C200.632 89.665 200.265 89.4121 199.96 89.084C199.659 88.7513 199.427 88.3503 199.263 87.8809C199.103 87.4069 199.023 86.876 199.023 86.2881V85.7549C199.023 85.167 199.105 84.6383 199.27 84.1689C199.434 83.695 199.671 83.2917 199.98 82.959C200.29 82.6217 200.66 82.3665 201.088 82.1934C201.521 82.0156 202.006 81.9268 202.544 81.9268C203.25 81.9268 203.845 82.0475 204.328 82.2891C204.811 82.526 205.187 82.8564 205.456 83.2803C205.725 83.7041 205.887 84.1895 205.941 84.7363H204.294C204.267 84.4401 204.191 84.1803 204.068 83.957C203.945 83.7292 203.761 83.5514 203.515 83.4238C203.269 83.2962 202.945 83.2324 202.544 83.2324C202.234 83.2324 201.963 83.2871 201.73 83.3965C201.498 83.5013 201.302 83.6608 201.143 83.875C200.988 84.0892 200.869 84.3535 200.787 84.668C200.71 84.9779 200.671 85.3379 200.671 85.748V86.2881C200.671 86.6891 200.705 87.0469 200.773 87.3613C200.846 87.6712 200.958 87.9333 201.108 88.1475C201.259 88.3617 201.45 88.5257 201.683 88.6396C201.92 88.749 202.2 88.8037 202.523 88.8037C202.911 88.8037 203.228 88.7513 203.474 88.6465C203.72 88.5371 203.909 88.373 204.041 88.1543C204.173 87.9355 204.253 87.6667 204.28 87.3477ZM212.474 83.6699L210.081 90H208.413L211.619 82.0361H212.727L212.474 83.6699ZM214.682 90L212.275 83.6562L212.022 82.0361H213.15L216.35 90H214.682ZM214.579 87.0469V88.2842H210.026V87.0469H214.579ZM226.115 82.0361V90H224.461L220.865 84.5107V90H219.218V82.0361H220.865L224.461 87.5254V82.0361H226.115ZM233.03 83.6699L230.638 90H228.97L232.176 82.0361H233.283L233.03 83.6699ZM235.238 90L232.832 83.6562L232.579 82.0361H233.707L236.906 90H235.238ZM235.136 87.0469V88.2842H230.583V87.0469H235.136Z" fill="#F59E0B"/>
<path d="M117.36 349.862V352H109.057V349.862H117.36ZM109.819 336.359V352H107.123V336.359H109.819ZM116.275 342.891V344.996H109.057V342.891H116.275ZM117.307 336.359V338.508H109.057V336.359H117.307ZM121.872 342.858V352H119.283V340.377H121.722L121.872 342.858ZM121.41 345.759L120.572 345.748C120.579 344.924 120.694 344.169 120.916 343.481C121.145 342.794 121.46 342.203 121.861 341.709C122.27 341.215 122.757 340.835 123.322 340.57C123.888 340.298 124.518 340.162 125.213 340.162C125.771 340.162 126.276 340.241 126.728 340.398C127.186 340.549 127.576 340.796 127.898 341.14C128.228 341.483 128.479 341.931 128.65 342.482C128.822 343.027 128.908 343.696 128.908 344.491V352H126.309V344.48C126.309 343.922 126.226 343.481 126.062 343.159C125.904 342.83 125.671 342.597 125.363 342.461C125.062 342.318 124.687 342.246 124.235 342.246C123.791 342.246 123.394 342.339 123.043 342.525C122.692 342.712 122.395 342.966 122.151 343.288C121.915 343.61 121.732 343.983 121.604 344.405C121.475 344.828 121.41 345.279 121.41 345.759ZM136.675 352.215C135.815 352.215 135.038 352.075 134.344 351.796C133.656 351.509 133.069 351.112 132.582 350.604C132.102 350.095 131.733 349.497 131.476 348.81C131.218 348.122 131.089 347.381 131.089 346.586V346.156C131.089 345.247 131.221 344.423 131.486 343.686C131.751 342.948 132.12 342.318 132.593 341.795C133.065 341.265 133.624 340.86 134.269 340.581C134.913 340.302 135.611 340.162 136.363 340.162C137.194 340.162 137.921 340.302 138.544 340.581C139.167 340.86 139.683 341.254 140.091 341.763C140.506 342.264 140.814 342.862 141.015 343.557C141.222 344.251 141.326 345.018 141.326 345.855V346.962H132.346V345.104H138.77V344.899C138.755 344.434 138.662 343.997 138.49 343.589C138.326 343.181 138.071 342.851 137.728 342.601C137.384 342.35 136.925 342.225 136.353 342.225C135.923 342.225 135.54 342.318 135.203 342.504C134.874 342.683 134.598 342.944 134.376 343.288C134.154 343.632 133.982 344.047 133.86 344.534C133.746 345.014 133.688 345.555 133.688 346.156V346.586C133.688 347.094 133.757 347.567 133.893 348.004C134.036 348.434 134.243 348.81 134.516 349.132C134.788 349.454 135.117 349.708 135.504 349.895C135.891 350.074 136.331 350.163 136.825 350.163C137.448 350.163 138.003 350.038 138.49 349.787C138.977 349.536 139.4 349.182 139.758 348.724L141.122 350.045C140.871 350.41 140.546 350.761 140.145 351.098C139.743 351.427 139.253 351.696 138.673 351.903C138.1 352.111 137.434 352.215 136.675 352.215ZM145.945 342.59V352H143.356V340.377H145.827L145.945 342.59ZM149.501 340.302L149.479 342.708C149.322 342.679 149.15 342.658 148.964 342.644C148.785 342.629 148.606 342.622 148.427 342.622C147.983 342.622 147.592 342.687 147.256 342.815C146.919 342.937 146.636 343.116 146.407 343.353C146.185 343.582 146.013 343.861 145.892 344.19C145.77 344.52 145.698 344.889 145.677 345.297L145.086 345.34C145.086 344.609 145.158 343.933 145.301 343.31C145.444 342.687 145.659 342.139 145.945 341.666C146.239 341.193 146.604 340.825 147.041 340.56C147.485 340.295 147.997 340.162 148.577 340.162C148.735 340.162 148.903 340.176 149.082 340.205C149.268 340.234 149.408 340.266 149.501 340.302ZM158.353 340.377H160.705V351.678C160.705 352.723 160.483 353.611 160.039 354.342C159.595 355.072 158.976 355.627 158.181 356.007C157.386 356.394 156.465 356.587 155.42 356.587C154.976 356.587 154.482 356.522 153.938 356.394C153.4 356.265 152.878 356.057 152.369 355.771C151.868 355.491 151.449 355.122 151.112 354.664L152.326 353.139C152.742 353.633 153.2 353.994 153.701 354.224C154.202 354.453 154.729 354.567 155.28 354.567C155.875 354.567 156.38 354.456 156.795 354.234C157.217 354.02 157.543 353.701 157.772 353.278C158.002 352.856 158.116 352.34 158.116 351.731V343.009L158.353 340.377ZM150.457 346.317V346.092C150.457 345.211 150.564 344.409 150.779 343.686C150.994 342.955 151.302 342.328 151.703 341.806C152.104 341.276 152.591 340.871 153.164 340.592C153.737 340.305 154.385 340.162 155.108 340.162C155.86 340.162 156.501 340.298 157.031 340.57C157.568 340.842 158.016 341.233 158.374 341.741C158.732 342.243 159.011 342.844 159.212 343.546C159.42 344.241 159.574 345.014 159.674 345.866V346.586C159.581 347.417 159.423 348.176 159.201 348.863C158.979 349.551 158.686 350.145 158.32 350.646C157.955 351.148 157.504 351.535 156.967 351.807C156.437 352.079 155.81 352.215 155.087 352.215C154.378 352.215 153.737 352.068 153.164 351.774C152.598 351.481 152.111 351.069 151.703 350.539C151.302 350.009 150.994 349.386 150.779 348.67C150.564 347.947 150.457 347.162 150.457 346.317ZM153.046 346.092V346.317C153.046 346.847 153.096 347.341 153.196 347.8C153.304 348.258 153.465 348.663 153.68 349.014C153.902 349.357 154.181 349.63 154.518 349.83C154.861 350.023 155.266 350.12 155.731 350.12C156.34 350.12 156.838 349.991 157.225 349.733C157.618 349.476 157.919 349.128 158.127 348.691C158.342 348.247 158.492 347.753 158.578 347.209V345.265C158.535 344.842 158.446 344.448 158.31 344.083C158.181 343.718 158.005 343.399 157.783 343.127C157.561 342.848 157.282 342.633 156.945 342.482C156.609 342.325 156.211 342.246 155.753 342.246C155.287 342.246 154.883 342.346 154.539 342.547C154.195 342.747 153.912 343.023 153.69 343.374C153.476 343.725 153.314 344.133 153.207 344.599C153.1 345.064 153.046 345.562 153.046 346.092ZM166.764 350.732L169.922 340.377H172.693L168.031 353.772C167.924 354.059 167.784 354.37 167.612 354.707C167.44 355.044 167.215 355.362 166.936 355.663C166.663 355.971 166.323 356.218 165.915 356.404C165.507 356.598 165.013 356.694 164.433 356.694C164.203 356.694 163.981 356.673 163.767 356.63C163.559 356.594 163.362 356.555 163.176 356.512L163.165 354.535C163.237 354.542 163.323 354.549 163.423 354.557C163.53 354.564 163.616 354.567 163.681 354.567C164.11 354.567 164.468 354.514 164.755 354.406C165.041 354.306 165.274 354.141 165.453 353.912C165.639 353.683 165.797 353.375 165.926 352.988L166.764 350.732ZM164.98 340.377L167.741 349.078L168.203 351.807L166.409 352.269L162.188 340.377H164.98ZM188.141 347.972C188.141 347.649 188.09 347.363 187.99 347.112C187.897 346.862 187.729 346.632 187.485 346.425C187.242 346.217 186.898 346.017 186.454 345.823C186.017 345.623 185.459 345.419 184.778 345.211C184.034 344.982 183.346 344.728 182.716 344.448C182.093 344.162 181.549 343.832 181.083 343.46C180.618 343.08 180.256 342.647 179.998 342.16C179.74 341.666 179.611 341.097 179.611 340.452C179.611 339.815 179.744 339.235 180.009 338.712C180.281 338.189 180.664 337.738 181.158 337.358C181.66 336.972 182.25 336.674 182.931 336.467C183.611 336.252 184.363 336.145 185.187 336.145C186.347 336.145 187.346 336.359 188.184 336.789C189.029 337.219 189.677 337.795 190.128 338.519C190.586 339.242 190.815 340.04 190.815 340.914H188.141C188.141 340.398 188.03 339.944 187.808 339.55C187.593 339.149 187.263 338.834 186.819 338.604C186.382 338.375 185.827 338.261 185.154 338.261C184.517 338.261 183.987 338.357 183.564 338.551C183.142 338.744 182.827 339.006 182.619 339.335C182.411 339.664 182.308 340.037 182.308 340.452C182.308 340.746 182.376 341.014 182.512 341.258C182.648 341.494 182.855 341.716 183.135 341.924C183.414 342.124 183.765 342.314 184.188 342.493C184.61 342.672 185.108 342.844 185.681 343.009C186.547 343.267 187.303 343.553 187.947 343.868C188.592 344.176 189.129 344.527 189.559 344.921C189.988 345.315 190.311 345.762 190.525 346.264C190.74 346.758 190.848 347.32 190.848 347.95C190.848 348.609 190.715 349.203 190.45 349.733C190.185 350.256 189.806 350.704 189.312 351.076C188.825 351.441 188.237 351.724 187.55 351.925C186.869 352.118 186.11 352.215 185.272 352.215C184.521 352.215 183.779 352.115 183.049 351.914C182.326 351.714 181.667 351.409 181.072 351.001C180.478 350.586 180.005 350.07 179.654 349.454C179.303 348.831 179.128 348.104 179.128 347.273H181.824C181.824 347.782 181.91 348.215 182.082 348.573C182.261 348.931 182.508 349.225 182.823 349.454C183.138 349.676 183.504 349.841 183.919 349.948C184.341 350.056 184.793 350.109 185.272 350.109C185.903 350.109 186.429 350.02 186.852 349.841C187.281 349.662 187.604 349.411 187.818 349.089C188.033 348.767 188.141 348.394 188.141 347.972ZM195.574 342.611V356.469H192.985V340.377H195.37L195.574 342.611ZM203.147 346.081V346.307C203.147 347.152 203.047 347.936 202.847 348.659C202.653 349.375 202.363 350.002 201.977 350.539C201.597 351.069 201.128 351.481 200.569 351.774C200.011 352.068 199.366 352.215 198.636 352.215C197.912 352.215 197.279 352.082 196.734 351.817C196.197 351.545 195.743 351.162 195.37 350.668C194.998 350.174 194.697 349.594 194.468 348.928C194.246 348.255 194.088 347.517 193.995 346.715V345.845C194.088 344.993 194.246 344.219 194.468 343.524C194.697 342.83 194.998 342.232 195.37 341.73C195.743 341.229 196.197 340.842 196.734 340.57C197.271 340.298 197.898 340.162 198.614 340.162C199.345 340.162 199.993 340.305 200.559 340.592C201.124 340.871 201.601 341.272 201.987 341.795C202.374 342.311 202.664 342.934 202.857 343.664C203.051 344.387 203.147 345.193 203.147 346.081ZM200.559 346.307V346.081C200.559 345.544 200.508 345.046 200.408 344.588C200.308 344.122 200.15 343.714 199.936 343.363C199.721 343.012 199.445 342.74 199.108 342.547C198.779 342.346 198.382 342.246 197.916 342.246C197.458 342.246 197.064 342.325 196.734 342.482C196.405 342.633 196.129 342.844 195.907 343.116C195.685 343.388 195.513 343.707 195.392 344.072C195.27 344.43 195.184 344.821 195.134 345.243V347.327C195.22 347.843 195.367 348.315 195.574 348.745C195.782 349.175 196.076 349.519 196.455 349.776C196.842 350.027 197.336 350.152 197.938 350.152C198.403 350.152 198.8 350.052 199.13 349.852C199.459 349.651 199.728 349.375 199.936 349.024C200.15 348.666 200.308 348.255 200.408 347.789C200.508 347.324 200.559 346.829 200.559 346.307ZM210.474 352.215C209.614 352.215 208.837 352.075 208.143 351.796C207.455 351.509 206.868 351.112 206.381 350.604C205.901 350.095 205.532 349.497 205.274 348.81C205.017 348.122 204.888 347.381 204.888 346.586V346.156C204.888 345.247 205.02 344.423 205.285 343.686C205.55 342.948 205.919 342.318 206.392 341.795C206.864 341.265 207.423 340.86 208.067 340.581C208.712 340.302 209.41 340.162 210.162 340.162C210.993 340.162 211.72 340.302 212.343 340.581C212.966 340.86 213.481 341.254 213.89 341.763C214.305 342.264 214.613 342.862 214.813 343.557C215.021 344.251 215.125 345.018 215.125 345.855V346.962H206.145V345.104H212.568V344.899C212.554 344.434 212.461 343.997 212.289 343.589C212.124 343.181 211.87 342.851 211.526 342.601C211.183 342.35 210.724 342.225 210.151 342.225C209.722 342.225 209.339 342.318 209.002 342.504C208.673 342.683 208.397 342.944 208.175 343.288C207.953 343.632 207.781 344.047 207.659 344.534C207.545 345.014 207.487 345.555 207.487 346.156V346.586C207.487 347.094 207.555 347.567 207.691 348.004C207.835 348.434 208.042 348.81 208.314 349.132C208.587 349.454 208.916 349.708 209.303 349.895C209.689 350.074 210.13 350.163 210.624 350.163C211.247 350.163 211.802 350.038 212.289 349.787C212.776 349.536 213.199 349.182 213.557 348.724L214.921 350.045C214.67 350.41 214.344 350.761 213.943 351.098C213.542 351.427 213.052 351.696 212.472 351.903C211.899 352.111 211.233 352.215 210.474 352.215ZM223.697 349.669V344.126C223.697 343.711 223.622 343.353 223.472 343.052C223.321 342.751 223.092 342.518 222.784 342.354C222.483 342.189 222.104 342.106 221.646 342.106C221.223 342.106 220.858 342.178 220.55 342.321C220.242 342.465 220.002 342.658 219.83 342.901C219.658 343.145 219.572 343.421 219.572 343.729H216.994C216.994 343.27 217.105 342.826 217.327 342.396C217.549 341.967 217.871 341.584 218.294 341.247C218.716 340.91 219.221 340.646 219.809 340.452C220.396 340.259 221.055 340.162 221.785 340.162C222.659 340.162 223.432 340.309 224.105 340.603C224.786 340.896 225.319 341.34 225.706 341.935C226.1 342.522 226.297 343.259 226.297 344.147V349.314C226.297 349.844 226.333 350.321 226.404 350.743C226.483 351.159 226.594 351.52 226.737 351.828V352H224.084C223.962 351.721 223.866 351.366 223.794 350.937C223.729 350.5 223.697 350.077 223.697 349.669ZM224.073 344.932L224.095 346.532H222.236C221.757 346.532 221.334 346.579 220.969 346.672C220.604 346.758 220.299 346.887 220.056 347.059C219.812 347.23 219.63 347.438 219.508 347.682C219.386 347.925 219.325 348.201 219.325 348.509C219.325 348.817 219.397 349.1 219.54 349.357C219.683 349.608 219.891 349.805 220.163 349.948C220.442 350.091 220.779 350.163 221.173 350.163C221.703 350.163 222.165 350.056 222.559 349.841C222.96 349.619 223.275 349.35 223.504 349.035C223.733 348.713 223.855 348.409 223.869 348.122L224.707 349.271C224.621 349.565 224.474 349.88 224.267 350.217C224.059 350.553 223.787 350.876 223.45 351.184C223.121 351.484 222.723 351.731 222.258 351.925C221.799 352.118 221.27 352.215 220.668 352.215C219.909 352.215 219.232 352.064 218.638 351.764C218.043 351.456 217.578 351.044 217.241 350.528C216.905 350.006 216.736 349.415 216.736 348.756C216.736 348.14 216.851 347.596 217.08 347.123C217.316 346.643 217.66 346.242 218.111 345.92C218.57 345.598 219.128 345.354 219.787 345.189C220.446 345.018 221.198 344.932 222.043 344.932H224.073ZM231.614 335.5V352H229.015V335.5H231.614ZM238.833 340.377L233.773 345.984L231.002 348.82L230.325 346.629L232.42 344.04L235.707 340.377H238.833ZM236.266 352L232.495 346.543L234.128 344.728L239.263 352H236.266ZM246.997 348.853C246.997 348.595 246.933 348.362 246.804 348.154C246.675 347.939 246.428 347.746 246.062 347.574C245.704 347.402 245.174 347.245 244.473 347.102C243.857 346.965 243.291 346.804 242.775 346.618C242.267 346.425 241.83 346.192 241.465 345.92C241.1 345.648 240.817 345.326 240.616 344.953C240.416 344.581 240.315 344.151 240.315 343.664C240.315 343.191 240.419 342.744 240.627 342.321C240.835 341.899 241.132 341.526 241.519 341.204C241.905 340.882 242.374 340.628 242.926 340.441C243.484 340.255 244.107 340.162 244.795 340.162C245.769 340.162 246.603 340.327 247.298 340.656C248 340.979 248.537 341.419 248.909 341.978C249.282 342.529 249.468 343.152 249.468 343.847H246.879C246.879 343.539 246.8 343.252 246.643 342.987C246.492 342.715 246.263 342.497 245.955 342.332C245.647 342.16 245.26 342.074 244.795 342.074C244.351 342.074 243.982 342.146 243.688 342.289C243.402 342.425 243.187 342.604 243.044 342.826C242.908 343.048 242.84 343.292 242.84 343.557C242.84 343.75 242.876 343.925 242.947 344.083C243.026 344.233 243.155 344.373 243.334 344.502C243.513 344.624 243.757 344.738 244.064 344.846C244.38 344.953 244.773 345.057 245.246 345.157C246.134 345.343 246.897 345.583 247.534 345.877C248.179 346.163 248.673 346.536 249.017 346.994C249.36 347.445 249.532 348.018 249.532 348.713C249.532 349.229 249.421 349.701 249.199 350.131C248.984 350.553 248.669 350.922 248.254 351.237C247.839 351.545 247.341 351.785 246.761 351.957C246.188 352.129 245.543 352.215 244.827 352.215C243.774 352.215 242.883 352.029 242.152 351.656C241.422 351.277 240.867 350.793 240.487 350.206C240.115 349.612 239.929 348.996 239.929 348.358H242.432C242.46 348.838 242.593 349.221 242.829 349.508C243.073 349.787 243.373 349.991 243.731 350.12C244.097 350.242 244.473 350.303 244.859 350.303C245.325 350.303 245.715 350.242 246.03 350.12C246.345 349.991 246.585 349.819 246.75 349.604C246.915 349.382 246.997 349.132 246.997 348.853Z" fill="white"/>
<path d="M127.113 369.469V378H126V369.469H127.113ZM129.855 369.469V370.395H123.263V369.469H129.855ZM131.795 372.656V378H130.711V371.66H131.766L131.795 372.656ZM133.776 371.625L133.77 372.633C133.68 372.613 133.594 372.602 133.512 372.598C133.434 372.59 133.344 372.586 133.243 372.586C132.993 372.586 132.772 372.625 132.58 372.703C132.389 372.781 132.227 372.891 132.094 373.031C131.961 373.172 131.856 373.34 131.778 373.535C131.704 373.727 131.655 373.938 131.631 374.168L131.327 374.344C131.327 373.961 131.364 373.602 131.438 373.266C131.516 372.93 131.635 372.633 131.795 372.375C131.955 372.113 132.159 371.91 132.405 371.766C132.655 371.617 132.952 371.543 133.295 371.543C133.373 371.543 133.463 371.553 133.565 371.572C133.666 371.588 133.737 371.605 133.776 371.625ZM138.857 376.535V371.66H139.946V378H138.909L138.857 376.535ZM139.062 375.199L139.513 375.188C139.513 375.609 139.468 376 139.378 376.359C139.292 376.715 139.152 377.023 138.956 377.285C138.761 377.547 138.505 377.752 138.189 377.9C137.872 378.045 137.488 378.117 137.034 378.117C136.726 378.117 136.443 378.072 136.185 377.982C135.931 377.893 135.712 377.754 135.529 377.566C135.345 377.379 135.202 377.135 135.101 376.834C135.003 376.533 134.954 376.172 134.954 375.75V371.66H136.038V375.762C136.038 376.047 136.07 376.283 136.132 376.471C136.198 376.654 136.286 376.801 136.396 376.91C136.509 377.016 136.634 377.09 136.771 377.133C136.911 377.176 137.056 377.197 137.204 377.197C137.665 377.197 138.03 377.109 138.3 376.934C138.57 376.754 138.763 376.514 138.88 376.213C139.001 375.908 139.062 375.57 139.062 375.199ZM145.49 376.318C145.49 376.162 145.455 376.018 145.385 375.885C145.318 375.748 145.18 375.625 144.969 375.516C144.762 375.402 144.449 375.305 144.031 375.223C143.68 375.148 143.361 375.061 143.076 374.959C142.795 374.857 142.555 374.734 142.355 374.59C142.16 374.445 142.01 374.275 141.904 374.08C141.799 373.885 141.746 373.656 141.746 373.395C141.746 373.145 141.801 372.908 141.91 372.686C142.023 372.463 142.182 372.266 142.385 372.094C142.592 371.922 142.84 371.787 143.129 371.689C143.418 371.592 143.74 371.543 144.096 371.543C144.604 371.543 145.037 371.633 145.396 371.812C145.756 371.992 146.031 372.232 146.223 372.533C146.414 372.83 146.51 373.16 146.51 373.523H145.426C145.426 373.348 145.373 373.178 145.268 373.014C145.166 372.846 145.016 372.707 144.816 372.598C144.621 372.488 144.381 372.434 144.096 372.434C143.795 372.434 143.551 372.48 143.363 372.574C143.18 372.664 143.045 372.779 142.959 372.92C142.877 373.061 142.836 373.209 142.836 373.365C142.836 373.482 142.855 373.588 142.895 373.682C142.938 373.771 143.012 373.855 143.117 373.934C143.223 374.008 143.371 374.078 143.562 374.145C143.754 374.211 143.998 374.277 144.295 374.344C144.814 374.461 145.242 374.602 145.578 374.766C145.914 374.93 146.164 375.131 146.328 375.369C146.492 375.607 146.574 375.896 146.574 376.236C146.574 376.514 146.516 376.768 146.398 376.998C146.285 377.229 146.119 377.428 145.9 377.596C145.686 377.76 145.428 377.889 145.127 377.982C144.83 378.072 144.496 378.117 144.125 378.117C143.566 378.117 143.094 378.018 142.707 377.818C142.32 377.619 142.027 377.361 141.828 377.045C141.629 376.729 141.529 376.395 141.529 376.043H142.619C142.635 376.34 142.721 376.576 142.877 376.752C143.033 376.924 143.225 377.047 143.451 377.121C143.678 377.191 143.902 377.227 144.125 377.227C144.422 377.227 144.67 377.188 144.869 377.109C145.072 377.031 145.227 376.924 145.332 376.787C145.438 376.65 145.49 376.494 145.49 376.318ZM150.852 371.66V372.492H147.425V371.66H150.852ZM148.585 370.119H149.669V376.43C149.669 376.645 149.702 376.807 149.768 376.916C149.835 377.025 149.921 377.098 150.026 377.133C150.132 377.168 150.245 377.186 150.366 377.186C150.456 377.186 150.55 377.178 150.647 377.162C150.749 377.143 150.825 377.127 150.876 377.115L150.882 378C150.796 378.027 150.682 378.053 150.542 378.076C150.405 378.104 150.239 378.117 150.044 378.117C149.778 378.117 149.534 378.064 149.311 377.959C149.089 377.854 148.911 377.678 148.778 377.432C148.649 377.182 148.585 376.846 148.585 376.424V370.119ZM157.282 377.344L159.045 371.66H160.205L157.663 378.979C157.604 379.135 157.526 379.303 157.428 379.482C157.334 379.666 157.213 379.84 157.065 380.004C156.916 380.168 156.737 380.301 156.526 380.402C156.319 380.508 156.071 380.561 155.782 380.561C155.696 380.561 155.586 380.549 155.454 380.525C155.321 380.502 155.227 380.482 155.172 380.467L155.166 379.588C155.198 379.592 155.246 379.596 155.313 379.6C155.383 379.607 155.432 379.611 155.459 379.611C155.705 379.611 155.914 379.578 156.086 379.512C156.258 379.449 156.403 379.342 156.52 379.189C156.641 379.041 156.745 378.836 156.83 378.574L157.282 377.344ZM155.987 371.66L157.633 376.582L157.914 377.725L157.135 378.123L154.803 371.66H155.987ZM161.003 374.9V374.766C161.003 374.309 161.07 373.885 161.202 373.494C161.335 373.1 161.527 372.758 161.777 372.469C162.027 372.176 162.329 371.949 162.685 371.789C163.04 371.625 163.439 371.543 163.88 371.543C164.325 371.543 164.726 371.625 165.081 371.789C165.441 371.949 165.745 372.176 165.995 372.469C166.249 372.758 166.443 373.1 166.575 373.494C166.708 373.885 166.775 374.309 166.775 374.766V374.9C166.775 375.357 166.708 375.781 166.575 376.172C166.443 376.562 166.249 376.904 165.995 377.197C165.745 377.486 165.443 377.713 165.087 377.877C164.736 378.037 164.337 378.117 163.892 378.117C163.446 378.117 163.046 378.037 162.691 377.877C162.335 377.713 162.03 377.486 161.777 377.197C161.527 376.904 161.335 376.562 161.202 376.172C161.07 375.781 161.003 375.357 161.003 374.9ZM162.087 374.766V374.9C162.087 375.217 162.124 375.516 162.198 375.797C162.273 376.074 162.384 376.32 162.532 376.535C162.685 376.75 162.874 376.92 163.101 377.045C163.327 377.166 163.591 377.227 163.892 377.227C164.189 377.227 164.448 377.166 164.671 377.045C164.898 376.92 165.085 376.75 165.234 376.535C165.382 376.32 165.493 376.074 165.568 375.797C165.646 375.516 165.685 375.217 165.685 374.9V374.766C165.685 374.453 165.646 374.158 165.568 373.881C165.493 373.6 165.38 373.352 165.228 373.137C165.079 372.918 164.892 372.746 164.665 372.621C164.443 372.496 164.181 372.434 163.88 372.434C163.583 372.434 163.321 372.496 163.095 372.621C162.872 372.746 162.685 372.918 162.532 373.137C162.384 373.352 162.273 373.6 162.198 373.881C162.124 374.158 162.087 374.453 162.087 374.766ZM172.213 376.535V371.66H173.303V378H172.266L172.213 376.535ZM172.418 375.199L172.869 375.188C172.869 375.609 172.824 376 172.734 376.359C172.648 376.715 172.508 377.023 172.312 377.285C172.117 377.547 171.861 377.752 171.545 377.9C171.229 378.045 170.844 378.117 170.391 378.117C170.082 378.117 169.799 378.072 169.541 377.982C169.287 377.893 169.068 377.754 168.885 377.566C168.701 377.379 168.559 377.135 168.457 376.834C168.359 376.533 168.311 376.172 168.311 375.75V371.66H169.395V375.762C169.395 376.047 169.426 376.283 169.488 376.471C169.555 376.654 169.643 376.801 169.752 376.91C169.865 377.016 169.99 377.09 170.127 377.133C170.268 377.176 170.412 377.197 170.561 377.197C171.021 377.197 171.387 377.109 171.656 376.934C171.926 376.754 172.119 376.514 172.236 376.213C172.357 375.908 172.418 375.57 172.418 375.199ZM176.239 372.656V378H175.155V371.66H176.21L176.239 372.656ZM178.22 371.625L178.214 372.633C178.124 372.613 178.038 372.602 177.956 372.598C177.878 372.59 177.788 372.586 177.686 372.586C177.436 372.586 177.216 372.625 177.024 372.703C176.833 372.781 176.671 372.891 176.538 373.031C176.405 373.172 176.3 373.34 176.221 373.535C176.147 373.727 176.098 373.938 176.075 374.168L175.77 374.344C175.77 373.961 175.807 373.602 175.882 373.266C175.96 372.93 176.079 372.633 176.239 372.375C176.399 372.113 176.602 371.91 176.848 371.766C177.098 371.617 177.395 371.543 177.739 371.543C177.817 371.543 177.907 371.553 178.009 371.572C178.11 371.588 178.18 371.605 178.22 371.625ZM183.776 371.66V378H182.686V371.66H183.776ZM182.604 369.979C182.604 369.803 182.657 369.654 182.762 369.533C182.871 369.412 183.032 369.352 183.243 369.352C183.45 369.352 183.608 369.412 183.717 369.533C183.83 369.654 183.887 369.803 183.887 369.979C183.887 370.146 183.83 370.291 183.717 370.412C183.608 370.529 183.45 370.588 183.243 370.588C183.032 370.588 182.871 370.529 182.762 370.412C182.657 370.291 182.604 370.146 182.604 369.979ZM186.8 373.014V378H185.716V371.66H186.741L186.8 373.014ZM186.542 374.59L186.091 374.572C186.095 374.139 186.159 373.738 186.284 373.371C186.409 373 186.585 372.678 186.812 372.404C187.038 372.131 187.308 371.92 187.62 371.771C187.937 371.619 188.286 371.543 188.669 371.543C188.982 371.543 189.263 371.586 189.513 371.672C189.763 371.754 189.976 371.887 190.152 372.07C190.331 372.254 190.468 372.492 190.562 372.785C190.655 373.074 190.702 373.428 190.702 373.846V378H189.613V373.834C189.613 373.502 189.564 373.236 189.466 373.037C189.368 372.834 189.226 372.688 189.038 372.598C188.851 372.504 188.62 372.457 188.347 372.457C188.077 372.457 187.831 372.514 187.609 372.627C187.39 372.74 187.2 372.896 187.04 373.096C186.884 373.295 186.761 373.523 186.671 373.781C186.585 374.035 186.542 374.305 186.542 374.59ZM195.203 371.66V372.492H191.775V371.66H195.203ZM192.936 370.119H194.02V376.43C194.02 376.645 194.053 376.807 194.119 376.916C194.186 377.025 194.271 377.098 194.377 377.133C194.482 377.168 194.596 377.186 194.717 377.186C194.807 377.186 194.9 377.178 194.998 377.162C195.1 377.143 195.176 377.127 195.227 377.115L195.232 378C195.146 378.027 195.033 378.053 194.893 378.076C194.756 378.104 194.59 378.117 194.395 378.117C194.129 378.117 193.885 378.064 193.662 377.959C193.439 377.854 193.262 377.678 193.129 377.432C193 377.182 192.936 376.846 192.936 376.424V370.119ZM200.554 376.535V371.66H201.643V378H200.606L200.554 376.535ZM200.759 375.199L201.21 375.188C201.21 375.609 201.165 376 201.075 376.359C200.989 376.715 200.848 377.023 200.653 377.285C200.458 377.547 200.202 377.752 199.886 377.9C199.569 378.045 199.184 378.117 198.731 378.117C198.423 378.117 198.139 378.072 197.882 377.982C197.628 377.893 197.409 377.754 197.225 377.566C197.042 377.379 196.899 377.135 196.798 376.834C196.7 376.533 196.651 376.172 196.651 375.75V371.66H197.735V375.762C197.735 376.047 197.766 376.283 197.829 376.471C197.895 376.654 197.983 376.801 198.093 376.91C198.206 377.016 198.331 377.09 198.468 377.133C198.608 377.176 198.753 377.197 198.901 377.197C199.362 377.197 199.727 377.109 199.997 376.934C200.266 376.754 200.46 376.514 200.577 376.213C200.698 375.908 200.759 375.57 200.759 375.199ZM204.673 371.66V378H203.584V371.66H204.673ZM203.502 369.979C203.502 369.803 203.554 369.654 203.66 369.533C203.769 369.412 203.929 369.352 204.14 369.352C204.347 369.352 204.505 369.412 204.615 369.533C204.728 369.654 204.785 369.803 204.785 369.979C204.785 370.146 204.728 370.291 204.615 370.412C204.505 370.529 204.347 370.588 204.14 370.588C203.929 370.588 203.769 370.529 203.66 370.412C203.554 370.291 203.502 370.146 203.502 369.979ZM209.268 371.66V372.492H205.84V371.66H209.268ZM207 370.119H208.084V376.43C208.084 376.645 208.118 376.807 208.184 376.916C208.25 377.025 208.336 377.098 208.442 377.133C208.547 377.168 208.661 377.186 208.782 377.186C208.871 377.186 208.965 377.178 209.063 377.162C209.164 377.143 209.241 377.127 209.291 377.115L209.297 378C209.211 378.027 209.098 378.053 208.957 378.076C208.821 378.104 208.655 378.117 208.459 378.117C208.194 378.117 207.95 378.064 207.727 377.959C207.504 377.854 207.327 377.678 207.194 377.432C207.065 377.182 207 376.846 207 376.424V370.119ZM211.917 371.66V378H210.827V371.66H211.917ZM210.745 369.979C210.745 369.803 210.798 369.654 210.904 369.533C211.013 369.412 211.173 369.352 211.384 369.352C211.591 369.352 211.749 369.412 211.859 369.533C211.972 369.654 212.029 369.803 212.029 369.979C212.029 370.146 211.972 370.291 211.859 370.412C211.749 370.529 211.591 370.588 211.384 370.588C211.173 370.588 211.013 370.529 210.904 370.412C210.798 370.291 210.745 370.146 210.745 369.979ZM213.57 374.9V374.766C213.57 374.309 213.637 373.885 213.77 373.494C213.902 373.1 214.094 372.758 214.344 372.469C214.594 372.176 214.896 371.949 215.252 371.789C215.607 371.625 216.006 371.543 216.447 371.543C216.893 371.543 217.293 371.625 217.648 371.789C218.008 371.949 218.312 372.176 218.562 372.469C218.816 372.758 219.01 373.1 219.143 373.494C219.275 373.885 219.342 374.309 219.342 374.766V374.9C219.342 375.357 219.275 375.781 219.143 376.172C219.01 376.562 218.816 376.904 218.562 377.197C218.312 377.486 218.01 377.713 217.654 377.877C217.303 378.037 216.904 378.117 216.459 378.117C216.014 378.117 215.613 378.037 215.258 377.877C214.902 377.713 214.598 377.486 214.344 377.197C214.094 376.904 213.902 376.562 213.77 376.172C213.637 375.781 213.57 375.357 213.57 374.9ZM214.654 374.766V374.9C214.654 375.217 214.691 375.516 214.766 375.797C214.84 376.074 214.951 376.32 215.1 376.535C215.252 376.75 215.441 376.92 215.668 377.045C215.895 377.166 216.158 377.227 216.459 377.227C216.756 377.227 217.016 377.166 217.238 377.045C217.465 376.92 217.652 376.75 217.801 376.535C217.949 376.32 218.061 376.074 218.135 375.797C218.213 375.516 218.252 375.217 218.252 374.9V374.766C218.252 374.453 218.213 374.158 218.135 373.881C218.061 373.6 217.947 373.352 217.795 373.137C217.646 372.918 217.459 372.746 217.232 372.621C217.01 372.496 216.748 372.434 216.447 372.434C216.15 372.434 215.889 372.496 215.662 372.621C215.439 372.746 215.252 372.918 215.1 373.137C214.951 373.352 214.84 373.6 214.766 373.881C214.691 374.158 214.654 374.453 214.654 374.766ZM221.985 373.014V378H220.901V371.66H221.927L221.985 373.014ZM221.727 374.59L221.276 374.572C221.28 374.139 221.345 373.738 221.47 373.371C221.595 373 221.77 372.678 221.997 372.404C222.223 372.131 222.493 371.92 222.805 371.771C223.122 371.619 223.471 371.543 223.854 371.543C224.167 371.543 224.448 371.586 224.698 371.672C224.948 371.754 225.161 371.887 225.337 372.07C225.516 372.254 225.653 372.492 225.747 372.785C225.841 373.074 225.888 373.428 225.888 373.846V378H224.798V373.834C224.798 373.502 224.749 373.236 224.651 373.037C224.554 372.834 224.411 372.688 224.223 372.598C224.036 372.504 223.805 372.457 223.532 372.457C223.263 372.457 223.016 372.514 222.794 372.627C222.575 372.74 222.386 372.896 222.225 373.096C222.069 373.295 221.946 373.523 221.856 373.781C221.77 374.035 221.727 374.305 221.727 374.59ZM227.752 377.426C227.752 377.242 227.808 377.088 227.921 376.963C228.039 376.834 228.207 376.77 228.425 376.77C228.644 376.77 228.81 376.834 228.923 376.963C229.041 377.088 229.099 377.242 229.099 377.426C229.099 377.605 229.041 377.758 228.923 377.883C228.81 378.008 228.644 378.07 228.425 378.07C228.207 378.07 228.039 378.008 227.921 377.883C227.808 377.758 227.752 377.605 227.752 377.426ZM110.389 389.137V390.057H105.771V389.137H110.389ZM105.947 385.469V394H104.816V385.469H105.947ZM111.373 385.469V394H110.248V385.469H111.373ZM114.596 387.66V394H113.507V387.66H114.596ZM113.425 385.979C113.425 385.803 113.477 385.654 113.583 385.533C113.692 385.412 113.852 385.352 114.063 385.352C114.27 385.352 114.429 385.412 114.538 385.533C114.651 385.654 114.708 385.803 114.708 385.979C114.708 386.146 114.651 386.291 114.538 386.412C114.429 386.529 114.27 386.588 114.063 386.588C113.852 386.588 113.692 386.529 113.583 386.412C113.477 386.291 113.425 386.146 113.425 385.979ZM120.533 392.77V385H121.623V394H120.627L120.533 392.77ZM116.267 390.9V390.777C116.267 390.293 116.326 389.854 116.443 389.459C116.564 389.061 116.734 388.719 116.953 388.434C117.175 388.148 117.439 387.93 117.744 387.777C118.052 387.621 118.396 387.543 118.775 387.543C119.173 387.543 119.521 387.613 119.818 387.754C120.119 387.891 120.373 388.092 120.58 388.357C120.791 388.619 120.957 388.936 121.078 389.307C121.199 389.678 121.283 390.098 121.33 390.566V391.105C121.287 391.57 121.203 391.988 121.078 392.359C120.957 392.73 120.791 393.047 120.58 393.309C120.373 393.57 120.119 393.771 119.818 393.912C119.517 394.049 119.166 394.117 118.763 394.117C118.392 394.117 118.052 394.037 117.744 393.877C117.439 393.717 117.175 393.492 116.953 393.203C116.734 392.914 116.564 392.574 116.443 392.184C116.326 391.789 116.267 391.361 116.267 390.9ZM117.357 390.777V390.9C117.357 391.217 117.388 391.514 117.451 391.791C117.517 392.068 117.619 392.312 117.755 392.523C117.892 392.734 118.066 392.9 118.277 393.021C118.488 393.139 118.74 393.197 119.033 393.197C119.392 393.197 119.687 393.121 119.918 392.969C120.152 392.816 120.339 392.615 120.48 392.365C120.621 392.115 120.73 391.844 120.808 391.551V390.139C120.761 389.924 120.693 389.717 120.603 389.518C120.517 389.314 120.404 389.135 120.263 388.979C120.127 388.818 119.957 388.691 119.754 388.598C119.554 388.504 119.318 388.457 119.045 388.457C118.748 388.457 118.492 388.52 118.277 388.645C118.066 388.766 117.892 388.934 117.755 389.148C117.619 389.359 117.517 389.605 117.451 389.887C117.388 390.164 117.357 390.461 117.357 390.777ZM127.506 392.77V385H128.596V394H127.6L127.506 392.77ZM123.241 390.9V390.777C123.241 390.293 123.299 389.854 123.416 389.459C123.537 389.061 123.707 388.719 123.926 388.434C124.149 388.148 124.412 387.93 124.717 387.777C125.026 387.621 125.37 387.543 125.748 387.543C126.147 387.543 126.495 387.613 126.791 387.754C127.092 387.891 127.346 388.092 127.553 388.357C127.764 388.619 127.93 388.936 128.051 389.307C128.172 389.678 128.256 390.098 128.303 390.566V391.105C128.26 391.57 128.176 391.988 128.051 392.359C127.93 392.73 127.764 393.047 127.553 393.309C127.346 393.57 127.092 393.771 126.791 393.912C126.491 394.049 126.139 394.117 125.737 394.117C125.366 394.117 125.026 394.037 124.717 393.877C124.412 393.717 124.149 393.492 123.926 393.203C123.707 392.914 123.537 392.574 123.416 392.184C123.299 391.789 123.241 391.361 123.241 390.9ZM124.33 390.777V390.9C124.33 391.217 124.362 391.514 124.424 391.791C124.491 392.068 124.592 392.312 124.729 392.523C124.866 392.734 125.039 392.9 125.25 393.021C125.461 393.139 125.713 393.197 126.006 393.197C126.366 393.197 126.661 393.121 126.891 392.969C127.125 392.816 127.313 392.615 127.454 392.365C127.594 392.115 127.704 391.844 127.782 391.551V390.139C127.735 389.924 127.666 389.717 127.577 389.518C127.491 389.314 127.377 389.135 127.237 388.979C127.1 388.818 126.93 388.691 126.727 388.598C126.528 388.504 126.291 388.457 126.018 388.457C125.721 388.457 125.465 388.52 125.25 388.645C125.039 388.766 124.866 388.934 124.729 389.148C124.592 389.359 124.491 389.605 124.424 389.887C124.362 390.164 124.33 390.461 124.33 390.777ZM133.114 394.117C132.673 394.117 132.273 394.043 131.913 393.895C131.558 393.742 131.251 393.529 130.993 393.256C130.739 392.982 130.544 392.658 130.407 392.283C130.271 391.908 130.202 391.498 130.202 391.053V390.807C130.202 390.291 130.279 389.832 130.431 389.43C130.583 389.023 130.79 388.68 131.052 388.398C131.314 388.117 131.611 387.904 131.943 387.76C132.275 387.615 132.618 387.543 132.974 387.543C133.427 387.543 133.818 387.621 134.146 387.777C134.478 387.934 134.749 388.152 134.96 388.434C135.171 388.711 135.327 389.039 135.429 389.418C135.53 389.793 135.581 390.203 135.581 390.648V391.135H130.847V390.25H134.497V390.168C134.482 389.887 134.423 389.613 134.321 389.348C134.224 389.082 134.068 388.863 133.853 388.691C133.638 388.52 133.345 388.434 132.974 388.434C132.728 388.434 132.501 388.486 132.294 388.592C132.087 388.693 131.909 388.846 131.761 389.049C131.612 389.252 131.497 389.5 131.415 389.793C131.333 390.086 131.292 390.424 131.292 390.807V391.053C131.292 391.354 131.333 391.637 131.415 391.902C131.501 392.164 131.624 392.395 131.784 392.594C131.948 392.793 132.146 392.949 132.376 393.062C132.611 393.176 132.876 393.232 133.173 393.232C133.556 393.232 133.88 393.154 134.146 392.998C134.411 392.842 134.644 392.633 134.843 392.371L135.499 392.893C135.362 393.1 135.189 393.297 134.978 393.484C134.767 393.672 134.507 393.824 134.198 393.941C133.894 394.059 133.532 394.117 133.114 394.117ZM138.131 389.014V394H137.047V387.66H138.072L138.131 389.014ZM137.873 390.59L137.422 390.572C137.426 390.139 137.49 389.738 137.615 389.371C137.74 389 137.916 388.678 138.143 388.404C138.369 388.131 138.639 387.92 138.951 387.771C139.268 387.619 139.617 387.543 140 387.543C140.312 387.543 140.594 387.586 140.844 387.672C141.094 387.754 141.307 387.887 141.482 388.07C141.662 388.254 141.799 388.492 141.893 388.785C141.986 389.074 142.033 389.428 142.033 389.846V394H140.943V389.834C140.943 389.502 140.895 389.236 140.797 389.037C140.699 388.834 140.557 388.688 140.369 388.598C140.182 388.504 139.951 388.457 139.678 388.457C139.408 388.457 139.162 388.514 138.939 388.627C138.721 388.74 138.531 388.896 138.371 389.096C138.215 389.295 138.092 389.523 138.002 389.781C137.916 390.035 137.873 390.305 137.873 390.59ZM149.711 387.66V388.492H146.283V387.66H149.711ZM147.443 386.119H148.527V392.43C148.527 392.645 148.56 392.807 148.627 392.916C148.693 393.025 148.779 393.098 148.884 393.133C148.99 393.168 149.103 393.186 149.224 393.186C149.314 393.186 149.408 393.178 149.505 393.162C149.607 393.143 149.683 393.127 149.734 393.115L149.74 394C149.654 394.027 149.541 394.053 149.4 394.076C149.263 394.104 149.097 394.117 148.902 394.117C148.636 394.117 148.392 394.064 148.17 393.959C147.947 393.854 147.769 393.678 147.636 393.432C147.507 393.182 147.443 392.846 147.443 392.424V386.119ZM152.266 388.656V394H151.182V387.66H152.237L152.266 388.656ZM154.246 387.625L154.241 388.633C154.151 388.613 154.065 388.602 153.983 388.598C153.905 388.59 153.815 388.586 153.713 388.586C153.463 388.586 153.243 388.625 153.051 388.703C152.86 388.781 152.698 388.891 152.565 389.031C152.432 389.172 152.327 389.34 152.248 389.535C152.174 389.727 152.125 389.938 152.102 390.168L151.797 390.344C151.797 389.961 151.834 389.602 151.909 389.266C151.987 388.93 152.106 388.633 152.266 388.375C152.426 388.113 152.629 387.91 152.875 387.766C153.125 387.617 153.422 387.543 153.766 387.543C153.844 387.543 153.934 387.553 154.036 387.572C154.137 387.588 154.207 387.605 154.246 387.625ZM159.327 392.535V387.66H160.417V394H159.38L159.327 392.535ZM159.532 391.199L159.984 391.188C159.984 391.609 159.939 392 159.849 392.359C159.763 392.715 159.622 393.023 159.427 393.285C159.232 393.547 158.976 393.752 158.659 393.9C158.343 394.045 157.958 394.117 157.505 394.117C157.196 394.117 156.913 394.072 156.655 393.982C156.402 393.893 156.183 393.754 155.999 393.566C155.816 393.379 155.673 393.135 155.571 392.834C155.474 392.533 155.425 392.172 155.425 391.75V387.66H156.509V391.762C156.509 392.047 156.54 392.283 156.603 392.471C156.669 392.654 156.757 392.801 156.866 392.91C156.98 393.016 157.105 393.09 157.241 393.133C157.382 393.176 157.527 393.197 157.675 393.197C158.136 393.197 158.501 393.109 158.771 392.934C159.04 392.754 159.234 392.514 159.351 392.213C159.472 391.908 159.532 391.57 159.532 391.199ZM164.924 387.66V388.492H161.496V387.66H164.924ZM162.656 386.119H163.74V392.43C163.74 392.645 163.773 392.807 163.84 392.916C163.906 393.025 163.992 393.098 164.098 393.133C164.203 393.168 164.316 393.186 164.438 393.186C164.527 393.186 164.621 393.178 164.719 393.162C164.82 393.143 164.896 393.127 164.947 393.115L164.953 394C164.867 394.027 164.754 394.053 164.613 394.076C164.477 394.104 164.311 394.117 164.115 394.117C163.85 394.117 163.605 394.064 163.383 393.959C163.16 393.854 162.982 393.678 162.85 393.432C162.721 393.182 162.656 392.846 162.656 392.424V386.119ZM167.479 385V394H166.395V385H167.479ZM167.221 390.59L166.77 390.572C166.774 390.139 166.839 389.738 166.964 389.371C167.089 389 167.264 388.678 167.491 388.404C167.718 388.131 167.987 387.92 168.3 387.771C168.616 387.619 168.966 387.543 169.348 387.543C169.661 387.543 169.942 387.586 170.192 387.672C170.442 387.754 170.655 387.887 170.831 388.07C171.011 388.254 171.147 388.492 171.241 388.785C171.335 389.074 171.382 389.428 171.382 389.846V394H170.292V389.834C170.292 389.502 170.243 389.236 170.145 389.037C170.048 388.834 169.905 388.688 169.718 388.598C169.53 388.504 169.3 388.457 169.026 388.457C168.757 388.457 168.511 388.514 168.288 388.627C168.069 388.74 167.88 388.896 167.72 389.096C167.563 389.295 167.44 389.523 167.35 389.781C167.264 390.035 167.221 390.305 167.221 390.59ZM176.896 392.318C176.896 392.162 176.861 392.018 176.791 391.885C176.724 391.748 176.586 391.625 176.375 391.516C176.168 391.402 175.855 391.305 175.437 391.223C175.086 391.148 174.767 391.061 174.482 390.959C174.201 390.857 173.961 390.734 173.761 390.59C173.566 390.445 173.416 390.275 173.31 390.08C173.205 389.885 173.152 389.656 173.152 389.395C173.152 389.145 173.207 388.908 173.316 388.686C173.429 388.463 173.588 388.266 173.791 388.094C173.998 387.922 174.246 387.787 174.535 387.689C174.824 387.592 175.146 387.543 175.502 387.543C176.009 387.543 176.443 387.633 176.802 387.812C177.162 387.992 177.437 388.232 177.629 388.533C177.82 388.83 177.916 389.16 177.916 389.523H176.832C176.832 389.348 176.779 389.178 176.673 389.014C176.572 388.846 176.421 388.707 176.222 388.598C176.027 388.488 175.787 388.434 175.502 388.434C175.201 388.434 174.957 388.48 174.769 388.574C174.586 388.664 174.451 388.779 174.365 388.92C174.283 389.061 174.242 389.209 174.242 389.365C174.242 389.482 174.261 389.588 174.3 389.682C174.343 389.771 174.418 389.855 174.523 389.934C174.629 390.008 174.777 390.078 174.968 390.145C175.16 390.211 175.404 390.277 175.701 390.344C176.22 390.461 176.648 390.602 176.984 390.766C177.32 390.93 177.57 391.131 177.734 391.369C177.898 391.607 177.98 391.896 177.98 392.236C177.98 392.514 177.921 392.768 177.804 392.998C177.691 393.229 177.525 393.428 177.306 393.596C177.091 393.76 176.834 393.889 176.533 393.982C176.236 394.072 175.902 394.117 175.531 394.117C174.972 394.117 174.5 394.018 174.113 393.818C173.726 393.619 173.433 393.361 173.234 393.045C173.035 392.729 172.935 392.395 172.935 392.043H174.025C174.041 392.34 174.127 392.576 174.283 392.752C174.439 392.924 174.63 393.047 174.857 393.121C175.084 393.191 175.308 393.227 175.531 393.227C175.828 393.227 176.076 393.188 176.275 393.109C176.478 393.031 176.632 392.924 176.738 392.787C176.843 392.65 176.896 392.494 176.896 392.318ZM186.472 392.318C186.472 392.162 186.437 392.018 186.366 391.885C186.3 391.748 186.161 391.625 185.95 391.516C185.743 391.402 185.431 391.305 185.013 391.223C184.661 391.148 184.343 391.061 184.058 390.959C183.777 390.857 183.536 390.734 183.337 390.59C183.142 390.445 182.991 390.275 182.886 390.08C182.78 389.885 182.728 389.656 182.728 389.395C182.728 389.145 182.782 388.908 182.892 388.686C183.005 388.463 183.163 388.266 183.366 388.094C183.573 387.922 183.821 387.787 184.111 387.689C184.4 387.592 184.722 387.543 185.077 387.543C185.585 387.543 186.019 387.633 186.378 387.812C186.738 387.992 187.013 388.232 187.204 388.533C187.396 388.83 187.491 389.16 187.491 389.523H186.407C186.407 389.348 186.355 389.178 186.249 389.014C186.148 388.846 185.997 388.707 185.798 388.598C185.603 388.488 185.363 388.434 185.077 388.434C184.777 388.434 184.532 388.48 184.345 388.574C184.161 388.664 184.027 388.779 183.941 388.92C183.859 389.061 183.818 389.209 183.818 389.365C183.818 389.482 183.837 389.588 183.876 389.682C183.919 389.771 183.993 389.855 184.099 389.934C184.204 390.008 184.353 390.078 184.544 390.145C184.736 390.211 184.98 390.277 185.277 390.344C185.796 390.461 186.224 390.602 186.56 390.766C186.896 390.93 187.146 391.131 187.31 391.369C187.474 391.607 187.556 391.896 187.556 392.236C187.556 392.514 187.497 392.768 187.38 392.998C187.267 393.229 187.101 393.428 186.882 393.596C186.667 393.76 186.409 393.889 186.109 393.982C185.812 394.072 185.478 394.117 185.107 394.117C184.548 394.117 184.075 394.018 183.689 393.818C183.302 393.619 183.009 393.361 182.81 393.045C182.611 392.729 182.511 392.395 182.511 392.043H183.601C183.616 392.34 183.702 392.576 183.859 392.752C184.015 392.924 184.206 393.047 184.433 393.121C184.659 393.191 184.884 393.227 185.107 393.227C185.404 393.227 185.652 393.188 185.851 393.109C186.054 393.031 186.208 392.924 186.314 392.787C186.419 392.65 186.472 392.494 186.472 392.318ZM193.059 392.535V387.66H194.148V394H193.111L193.059 392.535ZM193.264 391.199L193.715 391.188C193.715 391.609 193.67 392 193.58 392.359C193.494 392.715 193.354 393.023 193.158 393.285C192.963 393.547 192.707 393.752 192.391 393.9C192.074 394.045 191.689 394.117 191.236 394.117C190.928 394.117 190.645 394.072 190.387 393.982C190.133 393.893 189.914 393.754 189.73 393.566C189.547 393.379 189.404 393.135 189.303 392.834C189.205 392.533 189.156 392.172 189.156 391.75V387.66H190.24V391.762C190.24 392.047 190.271 392.283 190.334 392.471C190.4 392.654 190.488 392.801 190.598 392.91C190.711 393.016 190.836 393.09 190.973 393.133C191.113 393.176 191.258 393.197 191.406 393.197C191.867 393.197 192.232 393.109 192.502 392.934C192.771 392.754 192.965 392.514 193.082 392.213C193.203 391.908 193.264 391.57 193.264 391.199ZM197.085 388.656V394H196.001V387.66H197.055L197.085 388.656ZM199.065 387.625L199.059 388.633C198.97 388.613 198.884 388.602 198.802 388.598C198.723 388.59 198.634 388.586 198.532 388.586C198.282 388.586 198.061 388.625 197.87 388.703C197.679 388.781 197.516 388.891 197.384 389.031C197.251 389.172 197.145 389.34 197.067 389.535C196.993 389.727 196.944 389.938 196.921 390.168L196.616 390.344C196.616 389.961 196.653 389.602 196.727 389.266C196.805 388.93 196.925 388.633 197.085 388.375C197.245 388.113 197.448 387.91 197.694 387.766C197.944 387.617 198.241 387.543 198.585 387.543C198.663 387.543 198.753 387.553 198.854 387.572C198.956 387.588 199.026 387.605 199.065 387.625ZM201.978 394H200.894V386.992C200.894 386.535 200.976 386.15 201.14 385.838C201.308 385.521 201.548 385.283 201.861 385.123C202.173 384.959 202.545 384.877 202.974 384.877C203.099 384.877 203.224 384.885 203.349 384.9C203.478 384.916 203.603 384.939 203.724 384.971L203.666 385.855C203.584 385.836 203.49 385.822 203.384 385.814C203.283 385.807 203.181 385.803 203.08 385.803C202.849 385.803 202.65 385.85 202.482 385.943C202.318 386.033 202.193 386.166 202.107 386.342C202.021 386.518 201.978 386.734 201.978 386.992V394ZM203.326 387.66V388.492H199.892V387.66H203.326ZM208.471 392.916V389.652C208.471 389.402 208.42 389.186 208.319 389.002C208.221 388.814 208.073 388.67 207.873 388.568C207.674 388.467 207.428 388.416 207.135 388.416C206.862 388.416 206.621 388.463 206.414 388.557C206.211 388.65 206.051 388.773 205.934 388.926C205.821 389.078 205.764 389.242 205.764 389.418H204.68C204.68 389.191 204.739 388.967 204.856 388.744C204.973 388.521 205.141 388.32 205.36 388.141C205.582 387.957 205.848 387.812 206.157 387.707C206.469 387.598 206.817 387.543 207.2 387.543C207.661 387.543 208.067 387.621 208.418 387.777C208.774 387.934 209.051 388.17 209.25 388.486C209.454 388.799 209.555 389.191 209.555 389.664V392.617C209.555 392.828 209.573 393.053 209.608 393.291C209.647 393.529 209.704 393.734 209.778 393.906V394H208.647C208.592 393.875 208.549 393.709 208.518 393.502C208.487 393.291 208.471 393.096 208.471 392.916ZM208.659 390.156L208.67 390.918H207.575C207.266 390.918 206.991 390.943 206.748 390.994C206.506 391.041 206.303 391.113 206.139 391.211C205.975 391.309 205.85 391.432 205.764 391.58C205.678 391.725 205.635 391.895 205.635 392.09C205.635 392.289 205.68 392.471 205.77 392.635C205.86 392.799 205.995 392.93 206.174 393.027C206.358 393.121 206.582 393.168 206.848 393.168C207.18 393.168 207.473 393.098 207.727 392.957C207.981 392.816 208.182 392.645 208.33 392.441C208.483 392.238 208.565 392.041 208.577 391.85L209.039 392.371C209.012 392.535 208.938 392.717 208.817 392.916C208.696 393.115 208.534 393.307 208.33 393.49C208.131 393.67 207.893 393.82 207.616 393.941C207.342 394.059 207.034 394.117 206.69 394.117C206.26 394.117 205.883 394.033 205.559 393.865C205.239 393.697 204.989 393.473 204.809 393.191C204.633 392.906 204.545 392.588 204.545 392.236C204.545 391.896 204.612 391.598 204.745 391.34C204.877 391.078 205.069 390.861 205.319 390.689C205.569 390.514 205.87 390.381 206.221 390.291C206.573 390.201 206.965 390.156 207.399 390.156H208.659ZM213.997 393.227C214.255 393.227 214.493 393.174 214.712 393.068C214.931 392.963 215.111 392.818 215.251 392.635C215.392 392.447 215.472 392.234 215.491 391.996H216.523C216.503 392.371 216.376 392.721 216.142 393.045C215.911 393.365 215.609 393.625 215.234 393.824C214.859 394.02 214.446 394.117 213.997 394.117C213.521 394.117 213.105 394.033 212.749 393.865C212.398 393.697 212.105 393.467 211.87 393.174C211.64 392.881 211.466 392.545 211.349 392.166C211.236 391.783 211.179 391.379 211.179 390.953V390.707C211.179 390.281 211.236 389.879 211.349 389.5C211.466 389.117 211.64 388.779 211.87 388.486C212.105 388.193 212.398 387.963 212.749 387.795C213.105 387.627 213.521 387.543 213.997 387.543C214.493 387.543 214.927 387.645 215.298 387.848C215.669 388.047 215.96 388.32 216.171 388.668C216.386 389.012 216.503 389.402 216.523 389.84H215.491C215.472 389.578 215.398 389.342 215.269 389.131C215.144 388.92 214.972 388.752 214.753 388.627C214.538 388.498 214.286 388.434 213.997 388.434C213.665 388.434 213.386 388.5 213.159 388.633C212.937 388.762 212.759 388.938 212.626 389.16C212.497 389.379 212.404 389.623 212.345 389.893C212.29 390.158 212.263 390.43 212.263 390.707V390.953C212.263 391.23 212.29 391.504 212.345 391.773C212.4 392.043 212.491 392.287 212.62 392.506C212.753 392.725 212.931 392.9 213.154 393.033C213.38 393.162 213.661 393.227 213.997 393.227ZM220.572 394.117C220.131 394.117 219.73 394.043 219.371 393.895C219.016 393.742 218.709 393.529 218.451 393.256C218.197 392.982 218.002 392.658 217.865 392.283C217.729 391.908 217.66 391.498 217.66 391.053V390.807C217.66 390.291 217.736 389.832 217.889 389.43C218.041 389.023 218.248 388.68 218.51 388.398C218.771 388.117 219.068 387.904 219.4 387.76C219.732 387.615 220.076 387.543 220.432 387.543C220.885 387.543 221.275 387.621 221.604 387.777C221.936 387.934 222.207 388.152 222.418 388.434C222.629 388.711 222.785 389.039 222.887 389.418C222.988 389.793 223.039 390.203 223.039 390.648V391.135H218.305V390.25H221.955V390.168C221.939 389.887 221.881 389.613 221.779 389.348C221.682 389.082 221.525 388.863 221.311 388.691C221.096 388.52 220.803 388.434 220.432 388.434C220.186 388.434 219.959 388.486 219.752 388.592C219.545 388.693 219.367 388.846 219.219 389.049C219.07 389.252 218.955 389.5 218.873 389.793C218.791 390.086 218.75 390.424 218.75 390.807V391.053C218.75 391.354 218.791 391.637 218.873 391.902C218.959 392.164 219.082 392.395 219.242 392.594C219.406 392.793 219.604 392.949 219.834 393.062C220.068 393.176 220.334 393.232 220.631 393.232C221.014 393.232 221.338 393.154 221.604 392.998C221.869 392.842 222.102 392.633 222.301 392.371L222.957 392.893C222.82 393.1 222.646 393.297 222.436 393.484C222.225 393.672 221.965 393.824 221.656 393.941C221.352 394.059 220.99 394.117 220.572 394.117ZM228.765 389.014V394H227.681V387.66H228.707L228.765 389.014ZM228.507 390.59L228.056 390.572C228.06 390.139 228.125 389.738 228.25 389.371C228.375 389 228.55 388.678 228.777 388.404C229.004 388.131 229.273 387.92 229.586 387.771C229.902 387.619 230.252 387.543 230.634 387.543C230.947 387.543 231.228 387.586 231.478 387.672C231.728 387.754 231.941 387.887 232.117 388.07C232.296 388.254 232.433 388.492 232.527 388.785C232.621 389.074 232.668 389.428 232.668 389.846V394H231.578V389.834C231.578 389.502 231.529 389.236 231.431 389.037C231.334 388.834 231.191 388.688 231.004 388.598C230.816 388.504 230.586 388.457 230.312 388.457C230.043 388.457 229.796 388.514 229.574 388.627C229.355 388.74 229.166 388.896 229.005 389.096C228.849 389.295 228.726 389.523 228.636 389.781C228.55 390.035 228.507 390.305 228.507 390.59ZM234.227 390.9V390.766C234.227 390.309 234.293 389.885 234.426 389.494C234.559 389.1 234.75 388.758 235 388.469C235.25 388.176 235.553 387.949 235.909 387.789C236.264 387.625 236.663 387.543 237.104 387.543C237.549 387.543 237.95 387.625 238.305 387.789C238.664 387.949 238.969 388.176 239.219 388.469C239.473 388.758 239.666 389.1 239.799 389.494C239.932 389.885 239.998 390.309 239.998 390.766V390.9C239.998 391.357 239.932 391.781 239.799 392.172C239.666 392.562 239.473 392.904 239.219 393.197C238.969 393.486 238.666 393.713 238.311 393.877C237.959 394.037 237.561 394.117 237.116 394.117C236.67 394.117 236.27 394.037 235.914 393.877C235.559 393.713 235.254 393.486 235 393.197C234.75 392.904 234.559 392.562 234.426 392.172C234.293 391.781 234.227 391.357 234.227 390.9ZM235.311 390.766V390.9C235.311 391.217 235.348 391.516 235.422 391.797C235.496 392.074 235.608 392.32 235.756 392.535C235.909 392.75 236.098 392.92 236.325 393.045C236.551 393.166 236.815 393.227 237.116 393.227C237.413 393.227 237.672 393.166 237.895 393.045C238.121 392.92 238.309 392.75 238.457 392.535C238.606 392.32 238.717 392.074 238.791 391.797C238.87 391.516 238.909 391.217 238.909 390.9V390.766C238.909 390.453 238.87 390.158 238.791 389.881C238.717 389.6 238.604 389.352 238.452 389.137C238.303 388.918 238.116 388.746 237.889 388.621C237.666 388.496 237.405 388.434 237.104 388.434C236.807 388.434 236.545 388.496 236.319 388.621C236.096 388.746 235.909 388.918 235.756 389.137C235.608 389.352 235.496 389.6 235.422 389.881C235.348 390.158 235.311 390.453 235.311 390.766ZM243.163 392.875L244.792 387.66H245.507L245.366 388.697L243.708 394H243.011L243.163 392.875ZM242.068 387.66L243.456 392.934L243.556 394H242.823L240.984 387.66H242.068ZM247.066 392.893L248.39 387.66H249.468L247.628 394H246.902L247.066 392.893ZM245.665 387.66L247.259 392.787L247.441 394H246.749L245.044 388.686L244.904 387.66H245.665ZM250.072 393.426C250.072 393.242 250.129 393.088 250.242 392.963C250.359 392.834 250.527 392.77 250.746 392.77C250.965 392.77 251.131 392.834 251.244 392.963C251.361 393.088 251.42 393.242 251.42 393.426C251.42 393.605 251.361 393.758 251.244 393.883C251.131 394.008 250.965 394.07 250.746 394.07C250.527 394.07 250.359 394.008 250.242 393.883C250.129 393.758 250.072 393.605 250.072 393.426Z" fill="white" fill-opacity="0.6"/>
<g filter="url(#filter1_f_161_42020)">
<path d="M75 210.5C75 162.175 114.175 123 162.5 123H193.5C241.825 123 281 162.175 281 210.5C281 258.825 241.825 298 193.5 298H162.5C114.175 298 75 258.825 75 210.5Z" fill="#F59E0B" fill-opacity="0.05"/>
</g>
<g filter="url(#filter2_d_161_42020)">
<path d="M213.94 212.444C213.565 219.389 211.187 226.076 207.092 231.698C202.998 237.319 197.363 241.635 190.868 244.122C184.373 246.61 177.297 247.162 170.495 245.714C163.693 244.266 157.456 240.878 152.538 235.961C147.62 231.043 144.231 224.806 142.782 218.004C141.333 211.202 141.885 204.126 144.372 197.631C146.859 191.136 151.174 185.501 156.795 181.406C162.416 177.311 169.103 174.932 176.048 174.556C177.668 174.468 178.516 176.396 177.656 177.768C174.779 182.37 173.548 187.811 174.162 193.204C174.776 198.596 177.2 203.621 181.037 207.459C184.875 211.296 189.9 213.72 195.292 214.334C200.684 214.948 206.126 213.716 210.728 210.84C212.104 209.98 214.028 210.824 213.94 212.444Z" stroke="#F59E0B" stroke-width="4" stroke-linecap="round" stroke-linejoin="round"/>
</g>
</g>
<path d="M66 50V51H290V50V49H66V50ZM306 66H305V418H306H307V66H306ZM290 434V433H66V434V435H290V434ZM50 418H51V66H50H49V418H50ZM66 434V433C57.7157 433 51 426.284 51 418H50H49C49 427.389 56.6112 435 66 435V434ZM306 418H305C305 426.284 298.284 433 290 433V434V435C299.389 435 307 427.389 307 418H306ZM290 50V51C298.284 51 305 57.7157 305 66H306H307C307 56.6112 299.389 49 290 49V50ZM66 50V49C56.6112 49 49 56.6112 49 66H50H51C51 57.7157 57.7157 51 66 51V50Z" fill="#F59E0B" fill-opacity="0.5" mask="url(#path-1-inside-1_161_42020)"/>
</g>
<defs>
<filter id="filter0_d_161_42020" x="0" y="0" width="356" height="484" filterUnits="userSpaceOnUse" color-interpolation-filters="sRGB">
<feFlood flood-opacity="0" result="BackgroundImageFix"/>
<feColorMatrix in="SourceAlpha" type="matrix" values="0 0 0 0 0 0 0 0 0 0 0 0 0 0 0 0 0 0 127 0" result="hardAlpha"/>
<feOffset/>
<feGaussianBlur stdDeviation="25"/>
<feComposite in2="hardAlpha" operator="out"/>
<feColorMatrix type="matrix" values="0 0 0 0 0.960784 0 0 0 0 0.619608 0 0 0 0 0.0431373 0 0 0 0.15 0"/>
<feBlend mode="normal" in2="BackgroundImageFix" result="effect1_dropShadow_161_42020"/>
<feBlend mode="normal" in="SourceGraphic" in2="effect1_dropShadow_161_42020" result="shape"/>
</filter>
<filter id="filter1_f_161_42020" x="-5" y="43" width="366" height="335" filterUnits="userSpaceOnUse" color-interpolation-filters="sRGB">
<feFlood flood-opacity="0" result="BackgroundImageFix"/>
<feBlend mode="normal" in="SourceGraphic" in2="BackgroundImageFix" result="shape"/>
<feGaussianBlur stdDeviation="40" result="effect1_foregroundBlur_161_42020"/>
</filter>
<filter id="filter2_d_161_42020" x="100" y="132.5" width="156" height="156" filterUnits="userSpaceOnUse" color-interpolation-filters="sRGB">
<feFlood flood-opacity="0" result="BackgroundImageFix"/>
<feColorMatrix in="SourceAlpha" type="matrix" values="0 0 0 0 0 0 0 0 0 0 0 0 0 0 0 0 0 0 127 0" result="hardAlpha"/>
<feOffset/>
<feGaussianBlur stdDeviation="15"/>
<feColorMatrix type="matrix" values="0 0 0 0 0.960784 0 0 0 0 0.619608 0 0 0 0 0.0431373 0 0 0 0.6 0"/>
<feBlend mode="normal" in2="BackgroundImageFix" result="effect1_dropShadow_161_42020"/>
<feBlend mode="normal" in="SourceGraphic" in2="effect1_dropShadow_161_42020" result="shape"/>
</filter>
<clipPath id="clip0_161_42020">
<path d="M50 66C50 57.1635 57.1634 50 66 50H290C298.837 50 306 57.1634 306 66V418C306 426.837 298.837 434 290 434H66C57.1634 434 50 426.837 50 418V66Z" fill="white"/>
</clipPath>
</defs>
</svg>
