<svg xmlns="http://www.w3.org/2000/svg" viewBox="0 0 724.92 51.13"><defs><style>.cls-1{fill:#efe297;}.cls-2{fill:#17100c;}</style></defs><title>1activity-line_1</title><g id="Layer_2" data-name="Layer 2"><g id="Layer_1-2" data-name="Layer 1"><path class="cls-1" d="M380.89,24.78a23.53,23.53,0,0,1,.22-3.75c.54-2.63,3.92-4.35,7.45-3.64a6.32,6.32,0,0,1,3.45,2c.9,1.2-.49,1.93-2.24,2.35-.36.08-.49.57-.73.87,3.17,2.34,6.15,2.82,8.64,1.41s2.14-3.75-.71-5.71c-5.49-3.77-12.83-4.12-20.5-4.9V7.67h25.4q141.83,0,283.66,0c4.46,0,8.62-.21,11.83-1.95,6,.76,6.82,3.34,5.71,6.87l-4.16,2.14a9.27,9.27,0,0,1-2.42,0c-2.8-1.71-6.06-2-9.82-2q-137.28.09-274.56,0h-8.45c.84,1.06,1.33,1.68,1.81,2.3l.28-.17c-1.82-.27-3.62-.62-5.46-.8-2-.2-4.05-.24-7.51-.43,2.78,1.36,4.22,2.09,5.71,2.78,3.93,1.83,4.41,4.43,3.46,7.18s-4,4.62-8.51,4.83a60.14,60.14,0,0,1-7.77-.58l.18.13L384,26.8l.24.16c.26-1.71-.38-2.82-3.53-2.3Z"/><path class="cls-1" d="M350.21,14.93a2.31,2.31,0,0,1-.78-.11c-3-2.59-7.53-.16-11.23-1.47a12.68,12.68,0,0,0-10.3.9c-1.36.74-4,.48-6.1.67l.26.17,1.74-2.29h-6.71q-139.24,0-278.51-.09c-4.89,0-8.87,1.36-13.52,2.34a36.31,36.31,0,0,1-3.62-2.11c-2.11-1.55-1.29-3.4-.49-5,.67-1.39,4.67-2.38,7.25-1.39C32.4,8.12,36.72,7.65,41,7.66q149.2,0,298.41,0H348l2,7.42Z"/><path class="cls-1" d="M714.22,15.12c-2.31,6-7.26,5.67-13,5,1.88-1.06,3.49-1.64,4.67-2.7,3.41-3,3-11.77-.73-14.4-1.32-.94-3.1-1.25-4.72-1.86,2.42-1.17,6.82-1.56,8.94-.83,1.6.54,2.76,1.85,4.84,5.33,2.07,0,4.09-.57,5.7,0a8,8,0,0,1,4.95,5C720.39,16.13,719.42,16.54,714.22,15.12Z"/><path class="cls-1" d="M24.66,19.85c-8.39,1.6-9.86,1-13.63-5.07-4.94,3-7.54-1.45-11-3.46C4.36,5.06,5.43,4.56,11.15,6.26c.73-2.47,1.93-4.57,4.65-5.57,2.94-1.08,5.67-.47,8.67,0-4.64,1.75-7.74,4-7.62,9.5S19.6,18.37,24.66,19.85Z"/><path class="cls-1" d="M346.86,24.79h5.67c1.23,2.45,3.28,4.55.58,6.88C351,33.52,350,31.05,348.2,30c-.54,1-1.43,2-1.5,3-.24,3,1.71,4.51,4.34,3.31a15.31,15.31,0,0,0,4.17-3.17,18.9,18.9,0,0,0,2.19-3.41l.57,4.07,1.31-2.06.16-.11c.08.16.25.33.23.48-.21,1.55-.44,3.09-.68,4.64-.34,2.23-1.9,4.14-1.62,6.59.06.56-1.05,1.25-1.52,1.77-2.64-.83-2.47-2.61-2.15-4.72,2.71,0,3.77-1.78,4.14-4.69a6.42,6.42,0,0,0-2.24.15c-1.1.53-2,1.49-3.09,2-2.87,1.38-6.13.76-7.64-1.32a6.85,6.85,0,0,1,.28-8.37c.88-1,2.5-1.64,1.82-3.48Z"/><path class="cls-1" d="M347,24.67c-.71.31-1.86.45-2.07,1-1.27,3.13-3.83,3.51-6.59,3.13s-4.82-2.83-5.23-5.85.55-5.31,3.22-6.75a40.88,40.88,0,0,1,4.41-1.69c-2.07,2.19-3.49,3.59-4.8,5.1a3.17,3.17,0,0,0-.5,3.95c1,1.7,2.76,1.55,4.32,1.22.75-.17,1.36-1,2-1.54-.12-.52-.09-1-.31-1.18-.91-.74-2.43-1.06-1.83-2.76a3.33,3.33,0,0,1,3.95-1.94,4.12,4.12,0,0,1,3.29,3.73c.12,1.24.05,2.49.06,3.74Z"/><path class="cls-1" d="M382.47,27.9V34c-1.88,4.29-5.34,4.09-8.73,3.54a4.69,4.69,0,0,1-4.28-5.17l.16-.16c2.63,2.45,5.25,4.91,9.28,3.07.56-3.24.56-3.24-2.21-6l-1.1,2.76c-3.36.14-3.57-2-4.58-3.55l3.44-4.82,4.9,1.06-.13-.12c-.38,1.91.48,2.58,2.3,2.3l-.16-.16L382.59,28Z"/><path class="cls-1" d="M362.7,24.48c.71,3.12,1.35,7,2.46,10.63,1.63,5.41.76,10.45-1.68,16A15.75,15.75,0,0,1,360.18,39C360.74,33.94,361.9,28.93,362.7,24.48Z"/><path class="cls-1" d="M362.39,4.47c4.13,1.65,5.05,2.81,5,6a4.82,4.82,0,0,1-3.32,4.9c-1.52.6-4.1-.48-5.39-2.25-1.12-1.54-1.22-4.59.1-6A24.63,24.63,0,0,1,362.39,4.47Z"/><path class="cls-1" d="M369.49,39.92l2.93.24c.12,1.11.24,2.25.4,3.75l-2.95.19c-.08-1.62-.14-3-.21-4.34Z"/><path class="cls-1" d="M331.72,14.92l-1.67,3.44-2.62-.31c.23-.81.24-1.61.53-1.72,1.27-.52,2.61-.84,3.93-1.24Z"/><path class="cls-1" d="M395.39,15.09h2.54c.95,1.17,1.25,2.36-.36,2.9s-2.12-.63-2.13-2a9.3,9.3,0,0,1,.12-1Z"/><path class="cls-1" d="M354.19,19.29l4.47,2.6-.37.68-4.81-2.44Z"/><path class="cls-1" d="M368.59,37.56c-2.74-.86-2-3-1.51-5l1.35,5.19Z"/><path class="cls-1" d="M352.38,12.76c-1.85-1.45-.52-3.3-.44-5l.27,5.14Z"/><path class="cls-1" d="M370.54,21.33l-3.68,1.29-.23-.65,3.63-1.43Z"/><path class="cls-1" d="M360.63,22.76v5h-.45V23Z"/><path class="cls-1" d="M356.54,18.35c1.07.35,2.61-.71,3.22,1.06l.16-.17c-1-.43-2.62.74-3.2-1.07Z"/><path class="cls-1" d="M368.52,31.17c-1.55-.64-1.21-1.76-.45-3.77l.38,3.85Z"/><path class="cls-1" d="M352.21,12.92l1,1.64-.59.19-.26-2Z"/><path class="cls-1" d="M372.9,15.09c.08-.67.16-1.34.23-2l.55.23-.95,1.61Z"/><path class="cls-1" d="M369.66,39.76c-1.55-.15-1-1.34-1.07-2.2l-.16.16,1.06,2.2Z"/><path class="cls-1" d="M350.05,15.09l.87.35-.39.44-.32-1Z"/><path class="cls-1" d="M359.76,19.41l.37.16-.21-.33Z"/><path class="cls-1" d="M352.21,17.64l-.42.39-.32-.39Z"/><path class="cls-1" d="M375.54,15.9c-.08-.07-.26-.17-.24-.2a4,4,0,0,1,.28-.54c.09.13.24.26.23.38S375.64,15.78,375.54,15.9Z"/><path class="cls-1" d="M368.45,31.25l1.17,1-.16.16-.94-1.22Z"/><path class="cls-1" d="M372.73,14.92l-.32.82-.32-.39.81-.26Z"/><path class="cls-1" d="M356.72,18.17l-.85-.29.38-.35.29.82Z"/><path class="cls-2" d="M382.59,28l-1.23-1.23Z"/></g></g></svg>