<svg preserveAspectRatio="none" width="100%" height="100%" overflow="visible" style="display: block;" viewBox="0 0 12 12" fill="none" xmlns="http://www.w3.org/2000/svg">
<g id="Icon" clip-path="url(#clip0_0_72)">
<path id="Vector" d="M5.50848 1.40701C5.5299 1.29231 5.59076 1.18871 5.68053 1.11417C5.77029 1.03962 5.88329 0.99881 5.99998 0.99881C6.11666 0.99881 6.22967 1.03962 6.31943 1.11417C6.40919 1.18871 6.47005 1.29231 6.49148 1.40701L7.01698 4.18601C7.0543 4.38358 7.15031 4.56532 7.29249 4.70749C7.43467 4.84967 7.6164 4.94568 7.81398 4.98301L10.593 5.50851C10.7077 5.52993 10.8113 5.59079 10.8858 5.68056C10.9604 5.77032 11.0012 5.88333 11.0012 6.00001C11.0012 6.11669 10.9604 6.2297 10.8858 6.31946C10.8113 6.40922 10.7077 6.47008 10.593 6.49151L7.81398 7.01701C7.6164 7.05433 7.43467 7.15035 7.29249 7.29252C7.15031 7.4347 7.0543 7.61643 7.01698 7.81401L6.49148 10.593C6.47005 10.7077 6.40919 10.8113 6.31943 10.8858C6.22967 10.9604 6.11666 11.0012 5.99998 11.0012C5.88329 11.0012 5.77029 10.9604 5.68053 10.8858C5.59076 10.8113 5.5299 10.7077 5.50848 10.593L4.98298 7.81401C4.94565 7.61643 4.84964 7.4347 4.70746 7.29252C4.56529 7.15035 4.38355 7.05433 4.18598 7.01701L1.40698 6.49151C1.29228 6.47008 1.18868 6.40922 1.11414 6.31946C1.03959 6.2297 0.998779 6.11669 0.998779 6.00001C0.998779 5.88333 1.03959 5.77032 1.11414 5.68056C1.18868 5.59079 1.29228 5.52993 1.40698 5.50851L4.18598 4.98301C4.38355 4.94568 4.56529 4.84967 4.70746 4.70749C4.84964 4.56532 4.94565 4.38358 4.98298 4.18601L5.50848 1.40701Z" stroke="var(--stroke-0, #F59E0B)" stroke-linecap="round" stroke-linejoin="round"/>
<path id="Vector_2" d="M10 1V3" stroke="var(--stroke-0, #F59E0B)" stroke-linecap="round" stroke-linejoin="round"/>
<path id="Vector_3" d="M11 2H9" stroke="var(--stroke-0, #F59E0B)" stroke-linecap="round" stroke-linejoin="round"/>
<path id="Vector_4" d="M2 11C2.55228 11 3 10.5523 3 10C3 9.44772 2.55228 9 2 9C1.44772 9 1 9.44772 1 10C1 10.5523 1.44772 11 2 11Z" stroke="var(--stroke-0, #F59E0B)" stroke-linecap="round" stroke-linejoin="round"/>
</g>
<defs>
<clipPath id="clip0_0_72">
<rect width="12" height="12" fill="white"/>
</clipPath>
</defs>
</svg>
