<svg preserveAspectRatio="none" width="100%" height="100%" overflow="visible" style="display: block;" viewBox="0 0 40 40" fill="none" xmlns="http://www.w3.org/2000/svg">
<g id="Frame 16">
<rect width="40" height="40" rx="20" fill="url(#paint0_linear_0_71)"/>
<path id="Ellipse 4" d="M30.002 20.002C30.002 25.5248 25.5248 30.002 20.002 30.002C14.4791 30.002 10.002 25.5248 10.002 20.002C10.002 14.4791 14.4791 10.002 20.002 10.002C25.5248 10.002 30.002 14.4791 30.002 20.002ZM14.502 20.002C14.502 23.0395 16.9644 25.502 20.002 25.502C23.0395 25.502 25.502 23.0395 25.502 20.002C25.502 16.9644 23.0395 14.502 20.002 14.502C16.9644 14.502 14.502 16.9644 14.502 20.002Z" fill="var(--fill-0, black)"/>
</g>
<defs>
<linearGradient id="paint0_linear_0_71" x1="20" y1="0" x2="20" y2="40" gradientUnits="userSpaceOnUse">
<stop stop-color="#2BFFFF"/>
<stop offset="1" stop-color="#2BFFFF" stop-opacity="0.41"/>
</linearGradient>
</defs>
</svg>
