<svg preserveAspectRatio="none" width="100%" height="100%" overflow="visible" style="display: block;" viewBox="0 0 40 40" fill="none" xmlns="http://www.w3.org/2000/svg">
<g id="Frame 18">
<rect x="0.5" y="0.5" width="39" height="39" rx="19.5" fill="var(--fill-0, white)" fill-opacity="0.12"/>
<rect x="0.5" y="0.5" width="39" height="39" rx="19.5" stroke="url(#paint0_linear_0_85)"/>
<path id="Ellipse 4" d="M30.0015 20.002C30.0015 25.5248 25.5243 30.002 20.0015 30.002C14.4786 30.002 10.0015 25.5248 10.0015 20.002C10.0015 14.4791 14.4786 10.002 20.0015 10.002C25.5243 10.002 30.0015 14.4791 30.0015 20.002ZM14.5015 20.002C14.5015 23.0395 16.9639 25.502 20.0015 25.502C23.039 25.502 25.5015 23.0395 25.5015 20.002C25.5015 16.9644 23.039 14.502 20.0015 14.502C16.9639 14.502 14.5015 16.9644 14.5015 20.002Z" fill="var(--fill-0, white)"/>
</g>
<defs>
<linearGradient id="paint0_linear_0_85" x1="20" y1="0" x2="20" y2="40" gradientUnits="userSpaceOnUse">
<stop stop-color="white" stop-opacity="0.16"/>
<stop offset="1" stop-color="white" stop-opacity="0.02"/>
</linearGradient>
</defs>
</svg>
