<svg width="25" height="25" viewBox="0 0 25 25" fill="none" xmlns="http://www.w3.org/2000/svg">
<g clip-path="url(#clip0_279_717)">
<mask id="path-1-inside-1_279_717" fill="white">
<path d="M0.133939 23.6981C0.0599997 23.7694 0.0683028 23.894 0.152509 23.9762C0.236715 24.0585 0.364939 24.0673 0.4389 23.9959L24.8661 0.427083C24.9401 0.355725 24.9318 0.231196 24.8475 0.148939C24.7633 0.0666823 24.6351 0.057847 24.5612 0.129205L0.133939 23.6981Z"/>
</mask>
<path d="M0.133939 23.6981C0.0599997 23.7694 0.0683028 23.894 0.152509 23.9762C0.236715 24.0585 0.364939 24.0673 0.4389 23.9959L24.8661 0.427083C24.9401 0.355725 24.9318 0.231196 24.8475 0.148939C24.7633 0.0666823 24.6351 0.057847 24.5612 0.129205L0.133939 23.6981Z" fill="white"/>
<path d="M0.133939 23.6981L-0.581537 22.9994L-0.581427 22.9993L0.133939 23.6981ZM0.4389 23.9959L1.15427 24.6947L1.15416 24.6948L0.4389 23.9959ZM0.133939 23.6981L0.849412 24.3967C1.26136 23.9991 1.0888 23.4935 0.872146 23.2819L0.152509 23.9762L-0.567129 24.6706C-0.952193 24.2944 -1.14135 23.5397 -0.581537 22.9994L0.133939 23.6981ZM0.152509 23.9762L0.872146 23.2819C0.655494 23.0702 0.135708 22.8996 -0.276359 23.2971L0.4389 23.9959L1.15416 24.6948C0.594173 25.2349 -0.182065 25.0467 -0.567129 24.6706L0.152509 23.9762ZM0.4389 23.9959L-0.276466 23.2972L24.1508 -0.271667L24.8661 0.427083L25.5815 1.12583L1.15427 24.6947L0.4389 23.9959ZM24.8661 0.427083L24.1508 -0.271667C23.7386 0.126028 23.9114 0.63179 24.1279 0.843289L24.8475 0.148939L25.5672 -0.545411C25.9521 -0.169398 26.1416 0.585422 25.5815 1.12583L24.8661 0.427083ZM24.8475 0.148939L24.1279 0.843289C24.3444 1.05479 24.8643 1.22565 25.2765 0.827955L24.5612 0.129205L23.8458 -0.569545C24.4059 -1.10996 25.1822 -0.921424 25.5672 -0.545411L24.8475 0.148939ZM24.5612 0.129205L25.2765 0.827955L0.849305 24.3968L0.133939 23.6981L-0.581427 22.9993L23.8458 -0.569545L24.5612 0.129205Z" fill="white" mask="url(#path-1-inside-1_279_717)"/>
<mask id="path-3-inside-2_279_717" fill="white">
<path d="M15.1495 1.53247C8.81175 0.131873 4.81348 4.1823 2.90739 7.63499C2.84156 7.75424 2.88285 7.90539 2.99956 7.97253C3.11628 8.03967 3.26431 7.99739 3.33015 7.87813C5.18586 4.51671 9.00741 0.682309 15.0464 2.01688C20.9245 3.3159 22.6185 8.73435 22.7864 11.0579C22.7962 11.1944 22.9125 11.2968 23.0462 11.2866C23.1798 11.2764 23.2802 11.1576 23.2703 11.0211C23.0949 8.59278 21.3299 2.89833 15.1495 1.53247Z"/>
</mask>
<path d="M15.1495 1.53247C8.81175 0.131873 4.81348 4.1823 2.90739 7.63499C2.84156 7.75424 2.88285 7.90539 2.99956 7.97253C3.11628 8.03967 3.26431 7.99739 3.33015 7.87813C5.18586 4.51671 9.00741 0.682309 15.0464 2.01688C20.9245 3.3159 22.6185 8.73435 22.7864 11.0579C22.7962 11.1944 22.9125 11.2968 23.0462 11.2866C23.1798 11.2764 23.2802 11.1576 23.2703 11.0211C23.0949 8.59278 21.3299 2.89833 15.1495 1.53247Z" fill="white"/>
<path d="M15.1495 1.53247L15.3667 0.555981L15.3667 0.555981L15.1495 1.53247ZM2.90739 7.63499L2.03215 7.1527L2.03215 7.1527L2.90739 7.63499ZM2.99956 7.97253L2.49995 8.83958L2.49993 8.83957L2.99956 7.97253ZM3.33015 7.87813L2.45491 7.39585L2.45491 7.39585L3.33015 7.87813ZM15.0464 2.01688L15.2636 1.04039L15.2636 1.04039L15.0464 2.01688ZM22.7864 11.0579L23.7837 10.9843L23.7837 10.9843L22.7864 11.0579ZM23.0462 11.2866L23.1206 12.2838L23.1206 12.2838L23.0462 11.2866ZM23.2703 11.0211L24.2677 10.9475L24.2677 10.9475L23.2703 11.0211ZM15.1495 1.53247L14.9322 2.50896C9.2254 1.24778 5.59145 4.84077 3.78263 8.11727L2.90739 7.63499L2.03215 7.1527C4.03551 3.52382 8.39811 -0.984033 15.3667 0.555981L15.1495 1.53247ZM2.90739 7.63499L3.78264 8.11727C3.97599 7.76701 3.86258 7.31454 3.49919 7.10549L2.99956 7.97253L2.49993 8.83957C1.90312 8.49624 1.70713 7.74146 2.03215 7.1527L2.90739 7.63499ZM2.99956 7.97253L3.49918 7.10548C3.12257 6.88884 2.65476 7.03383 2.45491 7.39585L3.33015 7.87813L4.20539 8.36042C3.87387 8.96094 3.10999 9.1905 2.49995 8.83958L2.99956 7.97253ZM3.33015 7.87813L2.45491 7.39585C4.40868 3.8568 8.59487 -0.433351 15.2636 1.04039L15.0464 2.01688L14.8292 2.99336C9.41994 1.79797 5.96304 5.17661 4.20539 8.36042L3.33015 7.87813ZM15.0464 2.01688L15.2636 1.04039C21.7705 2.47838 23.6015 8.46222 23.7837 10.9843L22.7864 11.0579L21.789 11.1316C21.6355 9.00647 20.0785 4.15342 14.8292 2.99336L15.0464 2.01688ZM22.7864 11.0579L23.7837 10.9843C23.7552 10.5889 23.4094 10.2561 22.9718 10.2895L23.0462 11.2866L23.1206 12.2838C22.4157 12.3374 21.8373 11.7999 21.789 11.1316L22.7864 11.0579ZM23.0462 11.2866L22.9718 10.2895C22.5362 10.3226 22.2445 10.7009 22.2729 11.0947L23.2703 11.0211L24.2677 10.9475C24.3158 11.6142 23.8235 12.2302 23.1206 12.2838L23.0462 11.2866ZM23.2703 11.0211L22.2729 11.0947C22.1117 8.86309 20.4827 3.73558 14.9322 2.50895L15.1495 1.53247L15.3667 0.555981C22.1772 2.06108 24.078 8.32246 24.2677 10.9475L23.2703 11.0211Z" fill="white" mask="url(#path-3-inside-2_279_717)"/>
<mask id="path-5-inside-3_279_717" fill="white">
<path d="M8.15307 22.5484C14.0336 25.0778 20.7432 21.4309 22.8401 15.8701C22.8891 15.74 22.8292 15.595 22.7062 15.5463C22.5831 15.4977 22.4435 15.5637 22.3944 15.6938C20.3905 21.0084 13.9581 24.4972 8.34335 22.0821C2.88384 19.7338 2.25086 14.0102 2.5212 11.6554C2.53708 11.5171 2.44334 11.3939 2.31181 11.3802C2.18028 11.3666 2.06079 11.4676 2.04491 11.6059C1.76238 14.0669 2.41275 20.0792 8.15307 22.5484Z"/>
</mask>
<path d="M8.15307 22.5484C14.0336 25.0778 20.7432 21.4309 22.8401 15.8701C22.8891 15.74 22.8292 15.595 22.7062 15.5463C22.5831 15.4977 22.4435 15.5637 22.3944 15.6938C20.3905 21.0084 13.9581 24.4972 8.34335 22.0821C2.88384 19.7338 2.25086 14.0102 2.5212 11.6554C2.53708 11.5171 2.44334 11.3939 2.31181 11.3802C2.18028 11.3666 2.06079 11.4676 2.04491 11.6059C1.76238 14.0669 2.41275 20.0792 8.15307 22.5484Z" fill="white"/>
<path d="M8.15307 22.5484L7.75335 23.4663L7.75335 23.4663L8.15307 22.5484ZM22.8401 15.8701L23.7765 16.2182L23.7765 16.2182L22.8401 15.8701ZM22.7062 15.5463L23.0787 14.6172L23.0789 14.6172L22.7062 15.5463ZM22.3944 15.6938L21.458 15.3458L21.458 15.3456L22.3944 15.6938ZM8.34335 22.0821L7.94363 23L7.94363 23L8.34335 22.0821ZM2.5212 11.6554L1.5269 11.5463L1.5269 11.5463L2.5212 11.6554ZM2.31181 11.3802L2.42007 10.3864L2.42007 10.3864L2.31181 11.3802ZM2.04491 11.6059L1.05061 11.4969L1.05061 11.4969L2.04491 11.6059ZM8.15307 22.5484L8.55279 21.6304C13.8275 23.8993 19.9762 20.6336 21.9036 15.5221L22.8401 15.8701L23.7765 16.2182C21.5103 22.2283 14.2398 26.2563 7.75335 23.4663L8.15307 22.5484ZM22.8401 15.8701L21.9036 15.5221C21.7763 15.8599 21.9108 16.3081 22.3335 16.4754L22.7062 15.5463L23.0789 14.6172C23.7476 14.8819 24.002 15.6201 23.7765 16.2182L22.8401 15.8701ZM22.7062 15.5463L22.3336 16.4755C22.7736 16.6496 23.1985 16.3928 23.3308 16.0421L22.3944 15.6938L21.458 15.3456C21.6886 14.7346 22.3926 14.3458 23.0787 14.6172L22.7062 15.5463ZM22.3944 15.6938L23.3309 16.0419C21.1573 21.8063 14.1638 25.6755 7.94363 23L8.34335 22.0821L8.74307 21.1642C13.7525 23.3189 19.6236 20.2105 21.458 15.3458L22.3944 15.6938ZM8.34335 22.0821L7.94363 23C4.92907 21.7034 3.23953 19.4614 2.35379 17.2453C1.47815 15.0545 1.37536 12.8663 1.5269 11.5463L2.5212 11.6554L3.51551 11.7645C3.3967 12.7993 3.47523 14.6502 4.21337 16.497C4.94141 18.3185 6.29812 20.1125 8.74307 21.1642L8.34335 22.0821ZM2.5212 11.6554L1.5269 11.5463C1.48526 11.909 1.73477 12.3254 2.20355 12.3741L2.31181 11.3802L2.42007 10.3864C3.1519 10.4624 3.58891 11.1251 3.51551 11.7645L2.5212 11.6554ZM2.31181 11.3802L2.20355 12.3741C2.66698 12.4222 2.99799 12.0741 3.03921 11.715L2.04491 11.6059L1.05061 11.4969C1.12359 10.8612 1.69358 10.311 2.42007 10.3864L2.31181 11.3802ZM2.04491 11.6059L3.03921 11.715C2.91421 12.8039 2.99442 14.7537 3.77055 16.7008C4.53655 18.6224 5.96767 20.5185 8.55279 21.6304L8.15307 22.5484L7.75335 23.4663C4.59815 22.1091 2.83392 19.7644 1.91029 17.4474C0.996789 15.1557 0.893086 12.8689 1.05061 11.4969L2.04491 11.6059Z" fill="white" mask="url(#path-5-inside-3_279_717)"/>
<path d="M1.33139 22.5C2.4744 21.0717 3.46154 18.8889 2.929 17.2222L4.52661 19.7222L1.33139 22.5Z" fill="white"/>
<path d="M23.4317 1.6665C22.2887 3.09485 21.3015 5.27765 21.8341 6.94433L20.2365 4.44431L23.4317 1.6665Z" fill="white"/>
<path d="M7.45549 17.2222C6.87628 17.8021 6.65668 18.6111 6.65668 19.4444C6.65668 20.2778 7.25336 21.3077 7.98802 21.9444C7.98802 21.9444 6.36419 21.4537 5.57423 20.7204C4.78427 19.987 4.67871 19.5996 4.67871 19.5996L7.45549 17.2222Z" fill="white"/>
<path d="M17.3073 7.22222C17.8621 6.61694 17.9756 5.64094 17.9414 4.80837C17.9072 3.97579 17.2687 2.97352 16.5085 2.37019C16.5085 2.37019 18.151 2.78784 18.9704 3.48516C19.7898 4.18248 19.97 4.72217 19.97 4.72217L17.3073 7.22222Z" fill="white"/>
</g>
<defs>
<clipPath id="clip0_279_717">
<rect width="25" height="25" fill="white" transform="matrix(-1 0 0 1 25 0)"/>
</clipPath>
</defs>
</svg>
