<svg width="20" height="20" viewBox="0 0 20 20" fill="none" xmlns="http://www.w3.org/2000/svg">
<path d="M10.5325 0.000810163C12.4629 0.105017 14.3218 0.766139 15.8844 1.90426C17.4471 3.04238 18.6466 4.60877 19.3381 6.41408C20.0295 8.21939 20.1832 10.1863 19.7806 12.0771C19.378 13.9679 18.4363 15.7016 17.0694 17.0687C15.7025 18.4357 13.9689 19.3776 12.0781 19.7804C10.1874 20.1832 8.22041 20.0297 6.41502 19.3384C4.60964 18.6472 3.04311 17.4478 1.90483 15.8853C0.766539 14.3228 0.105219 12.464 0.000808409 10.5336C-0.0236529 10.0833 0.512272 9.84757 0.893646 10.0866C2.17292 10.8862 3.68543 11.2285 5.18433 11.0578C6.68323 10.8871 8.08002 10.2135 9.14675 9.14673C10.2135 8.08 10.8872 6.68321 11.0579 5.18431C11.2286 3.68541 10.8862 2.17292 10.0866 0.893646C9.84759 0.511161 10.0822 -0.0236511 10.5325 0.000810163Z" fill="#A2F4FD"/>
</svg>
