<svg width="156" height="156" viewBox="0 0 156 156" fill="none" xmlns="http://www.w3.org/2000/svg">
<g filter="url(#filter0_d_161_42003)">
<mask id="path-1-inside-1_161_42003" fill="white">
<path d="M30 77.9915C30 51.4865 51.4865 30 77.9915 30C104.496 30 125.983 51.4865 125.983 77.9915C125.983 104.496 104.496 125.983 77.9915 125.983C51.4865 125.983 30 104.496 30 77.9915Z"/>
</mask>
<path d="M30 77.9915C30 51.4865 51.4865 30 77.9915 30C104.496 30 125.983 51.4865 125.983 77.9915C125.983 104.496 104.496 125.983 77.9915 125.983C51.4865 125.983 30 104.496 30 77.9915Z" fill="#104E64" fill-opacity="0.4" shape-rendering="crispEdges"/>
<path d="M77.9915 125.983V124.827C52.1249 124.827 31.156 103.858 31.156 77.9915H30H28.844C28.844 105.135 50.8481 127.139 77.9915 127.139V125.983ZM125.983 77.9915H124.827C124.827 103.858 103.858 124.827 77.9915 124.827V125.983V127.139C105.135 127.139 127.139 105.135 127.139 77.9915H125.983ZM77.9915 30V31.156C103.858 31.156 124.827 52.1249 124.827 77.9915H125.983H127.139C127.139 50.8481 105.135 28.844 77.9915 28.844V30ZM77.9915 30V28.844C50.8481 28.844 28.844 50.8481 28.844 77.9915H30H31.156C31.156 52.1249 52.1249 31.156 77.9915 31.156V30Z" fill="#00D3F2" fill-opacity="0.5" mask="url(#path-1-inside-1_161_42003)"/>
<path d="M77.9824 73.9922C76.9217 73.9922 75.9045 74.4135 75.1545 75.1636C74.4045 75.9136 73.9831 76.9308 73.9831 77.9915C73.9831 80.0311 73.7831 83.0106 73.4632 85.9901" stroke="#53EAFD" stroke-width="3.99929" stroke-linecap="round" stroke-linejoin="round"/>
<path d="M81.9817 80.2311C81.9817 84.9902 81.9817 92.9888 79.9821 97.9879" stroke="#53EAFD" stroke-width="3.99929" stroke-linecap="round" stroke-linejoin="round"/>
<path d="M88.5606 96.0283C88.8006 94.8285 89.4205 91.4291 89.5604 89.9894" stroke="#53EAFD" stroke-width="3.99929" stroke-linecap="round" stroke-linejoin="round"/>
<path d="M57.986 77.9914C57.986 73.7945 59.3065 69.704 61.7605 66.2993C64.2144 62.8946 67.6775 60.3483 71.659 59.0211C75.6405 57.694 79.9387 57.6532 83.9447 58.9046C87.9507 60.1559 91.4614 62.636 93.9796 65.9936" stroke="#53EAFD" stroke-width="3.99929" stroke-linecap="round" stroke-linejoin="round"/>
<path d="M57.986 85.99H58.006" stroke="#53EAFD" stroke-width="3.99929" stroke-linecap="round" stroke-linejoin="round"/>
<path d="M97.579 85.9901C97.979 81.9908 97.841 75.284 97.579 73.9922" stroke="#53EAFD" stroke-width="3.99929" stroke-linecap="round" stroke-linejoin="round"/>
<path d="M63.9849 92.9888C64.9847 89.9893 65.9846 83.9904 65.9846 77.9915C65.9825 76.6295 66.2125 75.277 66.6644 73.9922" stroke="#53EAFD" stroke-width="3.99929" stroke-linecap="round" stroke-linejoin="round"/>
<path d="M71.2837 97.9879C71.7036 96.6682 72.1835 95.3484 72.4235 93.9886" stroke="#53EAFD" stroke-width="3.99929" stroke-linecap="round" stroke-linejoin="round"/>
<path d="M71.9835 67.5934C73.808 66.54 75.8776 65.9856 77.9843 65.986C80.0911 65.9863 82.1606 66.5414 83.9847 67.5953C85.8088 68.6492 87.3233 70.1649 88.3758 71.9899C89.4282 73.8149 89.9816 75.8848 89.9803 77.9915V81.9908" stroke="#53EAFD" stroke-width="3.99929" stroke-linecap="round" stroke-linejoin="round"/>
</g>
<defs>
<filter id="filter0_d_161_42003" x="0" y="0" width="155.983" height="155.983" filterUnits="userSpaceOnUse" color-interpolation-filters="sRGB">
<feFlood flood-opacity="0" result="BackgroundImageFix"/>
<feColorMatrix in="SourceAlpha" type="matrix" values="0 0 0 0 0 0 0 0 0 0 0 0 0 0 0 0 0 0 127 0" result="hardAlpha"/>
<feOffset/>
<feGaussianBlur stdDeviation="15"/>
<feComposite in2="hardAlpha" operator="out"/>
<feColorMatrix type="matrix" values="0 0 0 0 0.0352941 0 0 0 0 0.658824 0 0 0 0 0.572549 0 0 0 0.3 0"/>
<feBlend mode="normal" in2="BackgroundImageFix" result="effect1_dropShadow_161_42003"/>
<feBlend mode="normal" in="SourceGraphic" in2="effect1_dropShadow_161_42003" result="shape"/>
</filter>
</defs>
</svg>
